<?xml version="1.0" encoding="UTF-8" standalone="no"?>
<!-- Created with Inkscape (http://www.inkscape.org/) -->

<svg
   xmlns:osb="http://www.openswatchbook.org/uri/2009/osb"
   xmlns:dc="http://purl.org/dc/elements/1.1/"
   xmlns:cc="http://creativecommons.org/ns#"
   xmlns:rdf="http://www.w3.org/1999/02/22-rdf-syntax-ns#"
   xmlns:svg="http://www.w3.org/2000/svg"
   xmlns="http://www.w3.org/2000/svg"
   xmlns:xlink="http://www.w3.org/1999/xlink"
   xmlns:sodipodi="http://sodipodi.sourceforge.net/DTD/sodipodi-0.dtd"
   xmlns:inkscape="http://www.inkscape.org/namespaces/inkscape"
   width="250"
   height="50"
   viewBox="0 0 66.145831 13.229167"
   version="1.1"
   id="svg8"
   inkscape:version="0.92.3 (2405546, 2018-03-11)"
   sodipodi:docname="mountainspokelogo-skinny.svg"
   inkscape:export-filename="C:\Users\Hymas Family\Desktop\CIT 230\cit230.home\assignments\term-project\images\mountainspokelogo-skinny1.png"
   inkscape:export-xdpi="300"
   inkscape:export-ydpi="300">
  <defs
     id="defs2">
    <pattern
       inkscape:collect="always"
       xlink:href="#Strips1_1"
       id="pattern1580"
       patternTransform="matrix(8.2530745,0,0,8.2530745,1.5769204,-0.13641082)" />
    <pattern
       inkscape:stockid="Stripes 1:1"
       id="Strips1_1"
       patternTransform="translate(0,0) scale(10,10)"
       height="1"
       width="2"
       patternUnits="userSpaceOnUse"
       inkscape:collect="always">
      <rect
         id="rect1596"
         height="2"
         width="1"
         y="-0.5"
         x="0"
         style="fill:black;stroke:none" />
    </pattern>
    <linearGradient
       id="linearGradient876"
       osb:paint="solid">
      <stop
         style="stop-color:#000000;stop-opacity:1;"
         offset="0"
         id="stop874" />
    </linearGradient>
    <linearGradient
       inkscape:collect="always"
       id="linearGradient4546">
      <stop
         style="stop-color:#000000;stop-opacity:1;"
         offset="0"
         id="stop4542" />
      <stop
         style="stop-color:#000000;stop-opacity:0;"
         offset="1"
         id="stop4544" />
    </linearGradient>
    <linearGradient
       inkscape:collect="always"
       xlink:href="#linearGradient4546"
       id="linearGradient4548"
       x1="2.0204885"
       y1="276.27441"
       x2="40.33012"
       y2="276.27441"
       gradientUnits="userSpaceOnUse"
       gradientTransform="translate(-0.26487855,0.67420527)" />
  </defs>
  <sodipodi:namedview
     id="base"
     pagecolor="#ffffff"
     bordercolor="#666666"
     borderopacity="1.0"
     inkscape:pageopacity="0.0"
     inkscape:pageshadow="2"
     inkscape:zoom="4"
     inkscape:cx="127.15766"
     inkscape:cy="5.8136875"
     inkscape:document-units="mm"
     inkscape:current-layer="g2329"
     showgrid="false"
     units="px"
     inkscape:window-width="1920"
     inkscape:window-height="1017"
     inkscape:window-x="-8"
     inkscape:window-y="-8"
     inkscape:window-maximized="1"
     inkscape:snap-text-baseline="false" />
  <metadata
     id="metadata5">
    <rdf:RDF>
      <cc:Work
         rdf:about="">
        <dc:format>image/svg+xml</dc:format>
        <dc:type
           rdf:resource="http://purl.org/dc/dcmitype/StillImage" />
        <dc:title />
      </cc:Work>
    </rdf:RDF>
  </metadata>
  <g
     inkscape:label="Layer 1"
     inkscape:groupmode="layer"
     id="layer1"
     transform="translate(0,-283.77082)">
    <flowRoot
       xml:space="preserve"
       id="flowRoot10"
       style="font-style:normal;font-weight:normal;font-size:18.66666603px;line-height:1.25;font-family:sans-serif;letter-spacing:0px;word-spacing:0px;fill:#000000;fill-opacity:1;stroke:none"
       transform="matrix(1.2510038,0,0,0.64989258,7.0843535,113.41067)"><flowRegion
         id="flowRegion12"
         style="font-size:18.66666603px"><rect
           id="rect14"
           width="139.40105"
           height="77.781746"
           x="9.0913725"
           y="23.124331"
           style="font-size:18.66666603px" /></flowRegion><flowPara
         id="flowPara16" /></flowRoot>    <flowRoot
       xml:space="preserve"
       id="flowRoot24"
       style="font-style:normal;font-weight:normal;font-size:40px;line-height:1.25;font-family:sans-serif;letter-spacing:0px;word-spacing:0px;fill:#000000;fill-opacity:1;stroke:none"
       transform="matrix(1.2510038,0,0,0.64989258,7.0843535,113.41067)"><flowRegion
         id="flowRegion26"><rect
           id="rect28"
           width="131.31982"
           height="62.629459"
           x="13.637059"
           y="17.568491" /></flowRegion><flowPara
         id="flowPara30" /></flowRoot>    <g
       id="g5263"
       inkscape:export-xdpi="98.931999"
       inkscape:export-ydpi="98.931999">
      <g
         transform="matrix(0.68113238,0,0,1,-0.02751464,0)"
         inkscape:export-ydpi="118.56237"
         inkscape:export-xdpi="118.56237"
         id="g1468" />
      <g
         id="g102"
         inkscape:export-xdpi="300"
         inkscape:export-ydpi="300">
        <g
           id="g2347"
           inkscape:export-xdpi="300"
           inkscape:export-ydpi="300">
          <g
             inkscape:export-ydpi="300"
             inkscape:export-xdpi="300"
             id="g2329">
            <g
               id="g2358"
               inkscape:export-xdpi="300"
               inkscape:export-ydpi="300">
              <path
                 transform="matrix(0.68113238,0,0,1,-0.02751464,9.1666667e-6)"
                 style="fill:#cfee91;stroke:none;stroke-width:0.2016428px;stroke-linecap:butt;stroke-linejoin:miter;stroke-opacity:1;fill-opacity:1"
                 d="m 0.01791956,292.99159 4.89779244,-4.05606 5.210419,1.56768 7.919837,-4.92699 8.336671,2.48838 7.190377,-3.80723 8.336669,5.12607 5.731463,-1.76675 5.314626,3.65792 4.168336,-2.26443 8.961921,1.66722 0.208413,6.34537 -66.3807326,-0.0249 z"
                 id="path4558"
                 inkscape:connector-curvature="0" />
              <text
                 xml:space="preserve"
                 style="font-style:normal;font-variant:normal;font-weight:normal;font-stretch:normal;font-size:6.66884851px;line-height:1.25;font-family:'Bernard MT Condensed';-inkscape-font-specification:'Bernard MT Condensed, ';text-align:center;letter-spacing:0px;word-spacing:0px;text-anchor:middle;fill:#092a35;fill-opacity:1;stroke:url(#pattern1580);stroke-width:0.05;stroke-miterlimit:4;stroke-dasharray:none;stroke-opacity:1"
                 x="23.973808"
                 y="294.1424"
                 id="text20"
                 transform="scale(1.0312073,0.96973713)"><tspan
                   sodipodi:role="line"
                   id="tspan18"
                   x="23.973808"
                   y="294.1424"
                   style="font-style:normal;font-variant:normal;font-weight:normal;font-stretch:normal;font-size:6.66884851px;font-family:'Indie Flower';-inkscape-font-specification:'Indie Flower';text-align:center;word-spacing:-0.86885005px;text-anchor:middle;fill:#092a35;fill-opacity:1;stroke:url(#pattern1580);stroke-width:0.05;stroke-miterlimit:4;stroke-dasharray:none;stroke-opacity:1"
                   dy="3.9182048"
                   dx="0.92440248">The Mountain</tspan><tspan
                   sodipodi:role="line"
                   x="23.973808"
                   y="303.84201"
                   style="font-style:normal;font-variant:normal;font-weight:normal;font-stretch:normal;font-size:6.66884851px;font-family:'Indie Flower';-inkscape-font-specification:'Indie Flower';text-align:center;word-spacing:-0.86885005px;text-anchor:middle;fill:#092a35;fill-opacity:1;stroke:url(#pattern1580);stroke-width:0.05;stroke-miterlimit:4;stroke-dasharray:none;stroke-opacity:1"
                   id="tspan22">Spoke</tspan></text>
              <path
                 inkscape:connector-curvature="0"
                 id="path4668"
                 d="m 44.985821,290.67739 11.427127,6.41708 -11.28517,-0.0717 z"
                 style="fill:#cfee91;fill-opacity:1;stroke:none;stroke-width:0.26458332px;stroke-linecap:butt;stroke-linejoin:miter;stroke-opacity:1" />
              <path
                 inkscape:connector-curvature="0"
                 d="m 44.991173,290.69078 c -1.14e-4,0.004 -8.5e-5,0.007 -9e-5,0.0112 1.3e-5,0.003 2.6e-5,0.007 4e-5,0.0103 2.6e-5,0.003 8e-6,0.006 8e-6,0.008 -3e-6,0.003 5e-6,0.005 1.5e-5,0.008 8e-6,0.002 1.1e-5,0.004 1.4e-5,0.007 8e-6,0.002 -1.1e-5,0.004 -1.4e-5,0.007 -1.77e-4,0.003 2.36e-4,0.005 5.3e-4,0.007 2.35e-4,0.003 7.93e-4,0.005 0.0011,0.008 1.93e-4,0.003 7.94e-4,0.006 0.0011,0.008 2.65e-4,0.003 5.29e-4,0.005 5.29e-4,0.008 -2.64e-4,0.006 0.0021,0.002 -0.01405,0.008 -5.29e-4,1.7e-4 -2.59e-4,-10e-4 -2.65e-4,-0.002 0,0 0.01344,-0.007 0.01344,-0.007 v 0 c 0.0016,0.006 5.29e-4,6.1e-4 -0.01318,0.008 -1.03e-4,6e-5 2.65e-4,1.4e-4 2.65e-4,4e-5 1.58e-4,-2.1e-4 1.21e-4,-5.3e-4 1.85e-4,-7.9e-4 -2.7e-5,-0.003 -8.2e-5,-0.005 -2.65e-4,-0.008 -2.64e-4,-0.003 -7.93e-4,-0.005 -0.0011,-0.008 -2.65e-4,-0.003 -7.94e-4,-0.005 -0.0011,-0.008 -2.65e-4,-0.003 -7.94e-4,-0.005 -7.94e-4,-0.008 0,-0.002 -2.1e-5,-0.004 -1.3e-5,-0.007 2e-6,-0.002 5e-6,-0.004 1.3e-5,-0.007 1.3e-5,-0.003 1.8e-5,-0.005 1.6e-5,-0.008 2e-6,-0.003 -1.6e-5,-0.006 8e-6,-0.008 1.3e-5,-0.003 2.9e-5,-0.007 3.9e-5,-0.0104 -5e-6,-0.004 2.7e-5,-0.007 -9e-5,-0.0111 0,0 0.01368,-0.007 0.01368,-0.007 z"
                 id="path5227"
                 style="fill:#cfee91;fill-opacity:1;stroke:none;stroke-width:0.27899998;stroke-miterlimit:4;stroke-dasharray:none" />
              <path
                 inkscape:connector-curvature="0"
                 d="m 44.978383,290.70137 c -5.29e-4,-0.003 -0.0016,-0.005 -0.0028,-0.007 -7.93e-4,-0.002 -0.0011,-0.004 -0.0013,-0.006 -9.2e-5,-2.6e-4 -1.88e-4,-5.3e-4 -2.64e-4,-7.9e-4 0,0 0.01341,-0.007 0.01341,-0.007 v 0 c 1.22e-4,3.2e-4 2.46e-4,6.6e-4 2.65e-4,9.8e-4 5.29e-4,0.002 5.29e-4,0.004 0.0013,0.006 0.0011,0.002 0.0021,0.005 0.0029,0.008 0,0 -0.01347,0.007 -0.01347,0.007 z"
                 id="path5229"
                 style="fill:#cfee91;fill-opacity:1;stroke:none;stroke-width:0.27899998;stroke-miterlimit:4;stroke-dasharray:none" />
              <path
                 inkscape:connector-curvature="0"
                 d="m 44.993459,290.74735 c 0.0019,0.005 0.0026,0.0105 0.003,0.0159 2.65e-4,0.01 -2.64e-4,0.0199 -0.0011,0.0299 -0.0011,0.0126 -0.0034,0.0251 -0.0058,0.0375 -0.0021,0.0111 -0.0043,0.0222 -0.0067,0.0333 -0.0021,0.008 -0.0043,0.0168 -0.0061,0.0253 -0.0021,0.0105 -0.0046,0.0209 -0.0064,0.0314 -0.0016,0.0112 -0.0021,0.0225 -0.0021,0.0338 2.3e-4,0.0119 0.0019,0.0237 0.0041,0.0353 0.0028,0.012 0.0061,0.0238 0.0092,0.0357 0.0027,0.0105 0.0053,0.021 0.0079,0.0315 0.0021,0.009 0.0038,0.0182 0.0056,0.0273 7.94e-4,0.004 0.0019,0.008 0.0028,0.012 2.36e-4,8.5e-4 2.65e-4,0.002 7.94e-4,0.003 1.01e-4,2e-4 7.94e-4,2.1e-4 5.29e-4,2.9e-4 -0.004,0.002 -0.0082,0.003 -0.01236,0.005 5.29e-4,-0.002 0.0013,-0.004 0.0019,-0.006 0.0039,-0.0132 0.0063,-0.027 0.0086,-0.0405 0.0032,-0.0187 0.0035,-0.022 0.0062,-0.041 0.0039,-0.0295 0.007,-0.0591 0.0087,-0.0888 4e-5,-0.002 1.48e-4,-0.004 1.19e-4,-0.006 -1.06e-4,-0.007 -0.0044,-0.005 0.01315,-0.009 0.0011,-2.5e-4 -0.0011,0.002 -0.0013,0.003 -7.94e-4,0.003 -0.0029,0.014 -0.0032,0.0158 -0.0043,0.0237 -0.008,0.0474 -0.01233,0.0711 -5.29e-4,0.003 -0.0011,0.006 -0.0016,0.009 -5.29e-4,0.002 -0.0016,0.008 -0.0024,0.0109 -1.51e-4,5.8e-4 -5.9e-5,0.001 -5.3e-4,0.002 -0.01609,0.007 -0.01431,0.009 -0.01376,-10e-4 0.0035,-0.0354 0.0053,-0.0709 0.0066,-0.10647 5.29e-4,-0.0293 5.29e-4,-0.0588 -0.0027,-0.088 0.0065,-4.2e-4 -0.0033,-0.005 -0.0016,-0.006 0.004,-0.002 0.0084,-0.005 0.01302,-0.006 0.0011,-2.4e-4 -7.94e-4,0.002 -0.0011,0.003 -7.94e-4,0.005 -0.0013,0.0107 -0.0019,0.0161 -0.0049,0.0358 -0.0066,0.072 -0.0079,0.10813 -5.29e-4,0.0359 7.94e-4,0.0718 0.0019,0.10771 2.65e-4,0.009 5.29e-4,0.0179 0.0011,0.0269 6.9e-5,0.002 1.49e-4,0.003 2.28e-4,0.005 3.7e-5,7.6e-4 7.94e-4,0.002 1.27e-4,0.002 -0.0042,0.003 -0.0091,0.004 -0.01371,0.007 -6.3e-5,-0.001 -1.74e-4,-0.003 -1.93e-4,-0.004 -1.82e-4,-0.014 5.3e-4,-0.0281 0.0011,-0.0421 7.93e-4,-0.0222 0.0013,-0.0297 0.0024,-0.0527 0.0024,-0.0562 0.0035,-0.11254 0.0033,-0.16883 -2.54e-4,-0.0114 -1.9e-5,-0.0228 -5.29e-4,-0.0342 -5.3e-5,-9.5e-4 -0.0011,-0.002 -2.65e-4,-0.003 0.0159,-0.01 0.01365,-0.008 0.01267,0.002 -0.0041,0.044 -0.009,0.0879 -0.01355,0.1319 -0.0068,0.0604 -0.01251,0.12083 -0.01849,0.18127 -0.0019,0.0192 -0.004,0.0383 -0.0062,0.0574 -7.93e-4,0.006 -0.0019,0.0128 -0.0024,0.0191 -0.0044,-9e-5 -0.01064,0.003 -0.0132,-2.7e-4 -0.003,-0.004 0.0013,-0.0101 0.0021,-0.0152 0.0027,-0.0176 0.0057,-0.0352 0.0084,-0.0528 0.0054,-0.0355 0.0057,-0.0394 0.01064,-0.0763 0.009,-0.0741 0.01606,-0.14844 0.02339,-0.22274 5.29e-4,-0.006 0.0011,-0.0118 0.0019,-0.0177 2.65e-4,-0.004 7.94e-4,-0.007 0.0011,-0.0111 7.93e-4,-0.007 7.93e-4,-0.0117 0.01455,-0.0108 0.0024,1.6e-4 2.64e-4,0.005 2.64e-4,0.007 3.7e-5,0.004 -7.9e-5,0.008 -1.16e-4,0.012 -1.51e-4,0.0423 -0.0024,0.0846 -0.006,0.12671 -0.0019,0.0196 -0.0038,0.0392 -0.0057,0.0589 0,0 -0.0122,0.006 -0.0122,0.006 v 0 c 0.0026,-0.0198 0.0053,-0.0397 0.0073,-0.0596 5.29e-4,-0.007 0.0013,-0.0139 0.0019,-0.0209 0.0029,-0.0349 0.0041,-0.07 0.0026,-0.10494 -2.25e-4,-0.004 -2.65e-4,-0.008 -7.94e-4,-0.0116 -1.48e-4,-0.002 -0.0019,-0.004 -5.29e-4,-0.006 0.0032,-0.004 0.0076,-0.007 0.01241,-0.008 0.0016,-4.8e-4 -0.0013,0.003 -0.0016,0.005 -0.0019,0.008 -0.0039,0.0233 -0.0049,0.0299 -0.0031,0.0227 -0.0047,0.0329 -0.0075,0.0567 -0.0068,0.0557 -0.01212,0.11154 -0.01831,0.1673 -0.0047,0.0413 -0.0041,0.0362 -0.0089,0.0755 -0.0013,0.01 -0.0026,0.0195 -0.0037,0.0292 -7.94e-4,0.007 -0.0019,0.0149 -0.0024,0.0224 -5.29e-4,0.005 0.0013,0.0102 -7.94e-4,0.0144 -0.0029,0.006 -0.0091,0.009 -0.0136,0.0129 5.29e-4,-3.1e-4 0.0011,-4.7e-4 0.0013,-9.8e-4 0.0013,-0.004 0.0033,-0.0166 0.0037,-0.0186 0.0031,-0.0194 0.0056,-0.0388 0.008,-0.0583 0.0069,-0.0605 0.01262,-0.12104 0.01908,-0.18155 0.0026,-0.0275 0.0051,-0.0551 0.0072,-0.0826 0.0011,-0.0143 0.0019,-0.0222 0.0024,-0.036 1.67e-4,-0.004 2.3e-4,-0.008 2.65e-4,-0.0114 -1.54e-4,-0.0105 -0.0019,-0.009 0.01347,-0.0151 0.0011,-4e-4 -2.65e-4,0.002 -2.65e-4,0.003 -1.77e-4,0.002 -2.64e-4,0.005 -2.64e-4,0.007 -5.29e-4,0.009 -7.94e-4,0.0189 -0.0011,0.0278 -0.0019,0.0565 -0.003,0.11296 -0.0045,0.16944 -5.3e-4,0.0237 -7.94e-4,0.0292 -7.94e-4,0.0519 -5.3e-5,0.0107 -7.4e-5,0.0216 5.29e-4,0.0323 2.65e-4,0.006 5.29e-4,0.007 0.0011,0.0121 -0.0044,0.003 -0.0085,0.006 -0.01318,0.008 -7.94e-4,3.2e-4 2.43e-4,-0.002 2.65e-4,-0.002 8.2e-5,-0.002 6.3e-5,-0.003 8.4e-5,-0.005 1.09e-4,-0.009 1.01e-4,-0.0183 6.1e-5,-0.0274 -2.27e-4,-0.0361 -0.0011,-0.0722 -5.29e-4,-0.10838 0.0011,-0.0358 0.0026,-0.0716 0.006,-0.10727 7.94e-4,-0.0104 5.29e-4,-0.007 0.0011,-0.0157 6.4e-5,-0.001 -7.93e-4,-0.003 1.8e-4,-0.004 0.01508,-0.0119 0.01431,-0.0108 0.01535,-9e-4 0.0013,0.0298 0.0011,0.0596 2.65e-4,0.0894 -7.94e-4,0.0217 -0.0016,0.0433 -0.0024,0.065 -5.29e-4,0.0102 -0.0011,0.0204 -0.0013,0.0306 -1.21e-4,0.003 -1.61e-4,0.006 -2.43e-4,0.01 1.3e-4,0.0102 0.0016,0.005 -0.01304,0.0138 -5.29e-4,3.1e-4 7.94e-4,-9.6e-4 0.0011,-0.002 5.3e-4,-10e-4 0.0011,-0.003 0.0013,-0.004 0.0013,-0.005 0.0027,-0.0112 0.0037,-0.0157 0.0048,-0.0235 0.0085,-0.0472 0.01212,-0.071 5.29e-4,-0.003 0.0019,-0.012 0.0024,-0.0154 1.66e-4,-10e-4 -5.29e-4,-0.003 5.29e-4,-0.004 0.01497,-0.0107 0.01466,-0.0112 0.01405,-0.004 -1.64e-4,0.002 -2.64e-4,0.004 -5.29e-4,0.006 -0.003,0.03 -0.0066,0.0599 -0.01058,0.0898 -0.0026,0.0194 -0.0028,0.0216 -0.0056,0.0407 -0.0021,0.0152 -0.0044,0.0305 -0.008,0.0454 -0.0048,0.003 -0.0094,0.007 -0.01447,0.009 -2.65e-4,2.1e-4 -5.3e-4,-6.9e-4 -7.94e-4,-0.001 -2.65e-4,-8.5e-4 -5.29e-4,-0.002 -5.29e-4,-0.003 -0.0011,-0.004 -0.0019,-0.008 -0.0027,-0.0122 -0.0019,-0.009 -0.0034,-0.0183 -0.0056,-0.0273 -0.0024,-0.0106 -0.0051,-0.0211 -0.0077,-0.0316 -0.0031,-0.0119 -0.0063,-0.0238 -0.0092,-0.0358 -0.0024,-0.0117 -0.004,-0.0236 -0.0043,-0.0356 -5.5e-5,-0.0113 5.29e-4,-0.0227 0.0021,-0.034 0.0019,-0.0105 0.0042,-0.0209 0.0062,-0.0314 0.0016,-0.009 0.0039,-0.0169 0.0062,-0.0253 0.0026,-0.0111 0.0047,-0.0222 0.007,-0.0334 0.0024,-0.0123 0.0048,-0.0247 0.0058,-0.0372 5.29e-4,-0.01 0.0013,-0.0197 7.93e-4,-0.0296 -5.29e-4,-0.005 -0.0011,-0.0104 -0.0032,-0.0153 0,0 0.01339,-0.008 0.01339,-0.008 z"
                 id="path5231"
                 style="fill:#cfee91;fill-opacity:1;stroke:none;stroke-width:0.27899998;stroke-miterlimit:4;stroke-dasharray:none" />
              <path
                 inkscape:connector-curvature="0"
                 d="m 45.029741,291.07095 c -0.0047,0.0193 -0.0073,0.0392 -0.01021,0.0588 -0.0045,0.0313 -0.0058,0.0629 -0.0067,0.0945 2.9e-5,0.0296 -0.0016,0.0592 -0.0044,0.0887 -0.0021,0.0179 -2.64e-4,0.0228 -0.02965,0.0263 -0.0031,3.8e-4 1.25e-4,-0.006 5.29e-4,-0.009 5.3e-4,-0.006 0.0016,-0.0114 0.0021,-0.0171 0.0011,-0.008 0.0019,-0.017 0.0029,-0.0254 0.0073,-0.0665 0.01492,-0.13304 0.02254,-0.19955 2.44e-4,-0.002 0.0028,-0.0254 0.0035,-0.0305 2.04e-4,-0.002 -5.29e-4,-0.004 7.94e-4,-0.005 0.0088,-0.005 0.01789,-0.0109 0.02791,-0.0112 0.0035,-9e-5 -1.56e-4,0.007 -5.29e-4,0.0105 -5.29e-4,0.006 -0.0011,0.0118 -0.0016,0.0177 -0.0039,0.0332 -0.0059,0.0665 -0.0084,0.0998 -0.0027,0.0369 -0.0048,0.0623 -0.007,0.0997 -0.0011,0.0182 -0.0019,0.0364 -0.0026,0.0546 -0.003,0.0773 -0.0042,0.15466 -0.0027,0.23199 -0.0163,-0.003 0.0057,0.0147 5.29e-4,0.0174 -0.0085,0.005 -0.01767,0.0111 -0.0273,0.01 -0.0043,-5e-4 5.3e-4,-0.009 7.94e-4,-0.013 0.0013,-0.0169 0.0034,-0.039 0.0049,-0.0552 0.0049,-0.0476 0.0084,-0.0954 0.0065,-0.14332 -7.94e-4,-0.0201 -0.0024,-0.0401 -0.0046,-0.0601 -0.0052,-0.0491 -0.01042,-0.0729 -0.01916,-0.12111 -0.0091,-0.0425 -0.01781,-0.0852 -0.02979,-0.12704 -0.0021,-0.007 -0.0041,-0.0142 -0.0067,-0.021 -0.0045,-0.0118 -0.0027,-0.012 -0.0076,-0.007 0.0079,-10e-4 0.01749,-0.009 0.02376,-0.004 0.0059,0.005 -7.94e-4,0.0151 -7.94e-4,0.0227 -1.11e-4,0.0224 0.0011,0.0527 0.0019,0.0743 0.0033,0.0938 2.65e-4,0.003 0.0035,0.10259 0.0032,0.0856 0.0055,0.17142 0.0141,0.25672 0.0011,0.0114 0.0026,0.0228 0.004,0.0342 0.0021,0.014 0.0044,0.0324 0.0075,0.0467 7.93e-4,0.004 0.0013,0.008 0.003,0.011 2.65e-4,7.4e-4 0.0032,5e-5 0.0024,2.3e-4 -0.03135,0.007 -0.02477,0.0111 -0.0181,-0.0188 0.02008,-0.10867 0.03272,-0.21854 0.04581,-0.32822 0.0052,-0.0394 0.009,-0.0791 0.01487,-0.11843 7.94e-4,-0.006 0.0019,-0.0122 0.003,-0.0182 5.29e-4,-0.003 -1.1e-5,-0.006 0.0024,-0.008 0.0088,-0.005 0.01926,-0.008 0.02887,-0.0113 5.3e-4,0.005 0.0013,0.0101 0.0016,0.0152 5.29e-4,0.017 -5.29e-4,0.0444 -0.0013,0.0603 -0.0021,0.0449 -0.0061,0.0896 -0.01011,0.13441 -0.0064,0.0678 -0.01622,0.13514 -0.02297,0.20287 -0.0013,0.0136 -0.0013,0.0132 -0.0021,0.0249 -9.2e-5,10e-4 7.94e-4,0.003 -2.43e-4,0.004 -0.0087,0.005 -0.01765,0.0111 -0.02758,0.0113 -0.0036,8e-5 2.64e-4,-0.007 7.94e-4,-0.0107 5.29e-4,-0.006 0.0013,-0.0125 0.0019,-0.0188 0.0059,-0.0531 0.01159,-0.10625 0.01937,-0.1591 0.0039,-0.019 0.0043,-0.0266 0.0334,-0.028 0.0034,-1.6e-4 0.0013,0.007 0.0019,0.01 0.0011,0.009 0.0016,0.0265 0.0019,0.0352 7.94e-4,0.0322 0.0013,0.0644 -2.14e-4,0.0966 -7.94e-4,0.0136 -0.0016,0.024 -0.0026,0.0374 -2.65e-4,0.004 -7.94e-4,0.009 -0.0011,0.0132 -5.3e-4,0.005 -7.94e-4,0.0106 -0.0019,0.0154 -2.04e-4,7.9e-4 -2.44e-4,0.002 -0.0011,0.002 -0.03176,0.0129 -0.02758,0.0195 -0.03055,6.9e-4 -0.003,-0.0375 7.94e-4,-0.0751 0.0045,-0.11235 0.0029,-0.0296 0.0072,-0.0668 0.0105,-0.0961 0,0 0.02,-0.01 0.02,-0.01 v 0 c -0.0037,0.0367 -0.0062,0.0589 -0.009,0.0953 -0.0028,0.0363 -0.0053,0.0731 -2.9e-5,0.10926 0.004,0.0182 0.004,0.006 -0.02376,0.0249 -7.94e-4,4.5e-4 0.0019,-2.6e-4 0.0024,-9.5e-4 0.0019,-0.003 0.003,-0.0132 0.0033,-0.0156 5.29e-4,-0.004 0.0011,-0.009 0.0019,-0.0135 0.0016,-0.0146 0.0027,-0.0227 0.0037,-0.0377 0.0021,-0.032 0.0016,-0.064 -2.49e-4,-0.096 -7.94e-4,-0.0123 -0.0013,-0.022 -0.0032,-0.034 -5.29e-4,-0.003 -0.0038,-0.006 -0.0019,-0.008 0.0066,-0.007 0.01585,-0.0117 0.02442,-0.0166 0.0052,-0.003 -0.02657,0.027 -0.007,0.0166 -0.01019,0.0523 -0.01579,0.1056 -0.01934,0.15878 -2.32e-4,0.006 -5.29e-4,0.012 -7.93e-4,0.018 -5.9e-5,0.003 0.0024,0.007 1.93e-4,0.01 -0.04454,0.0435 -0.02754,0.0227 -0.0254,0.0123 0.0011,-0.006 0.0032,-0.0218 0.0038,-0.0257 0.0096,-0.0682 0.02058,-0.13627 0.0272,-0.20486 0.0034,-0.0404 0.0047,-0.0526 0.0067,-0.0927 0.0016,-0.0328 0.003,-0.0661 -2.27e-4,-0.0988 -5.29e-4,-0.004 -0.0013,-0.008 -0.0021,-0.0127 0.008,-0.006 0.01498,-0.0129 0.02389,-0.0168 0.0028,-10e-4 -0.0032,0.005 -0.0041,0.008 -0.0021,0.006 -0.0034,0.0126 -0.0048,0.0189 -0.0086,0.0398 -0.01312,0.0804 -0.01939,0.12056 -0.01431,0.10843 -0.02658,0.21712 -0.04026,0.32563 -0.0043,0.0314 0.0019,0.0237 -0.03187,0.047 -0.0011,7.2e-4 -0.0019,-0.002 -0.0024,-0.003 -0.0011,-0.004 -0.0013,-0.008 -0.0019,-0.0119 -7.94e-4,-0.007 -0.0016,-0.0135 -0.0024,-0.0203 -0.0011,-0.009 -0.0019,-0.0184 -0.0029,-0.0277 -0.0011,-0.0116 -0.0021,-0.0232 -0.0029,-0.0348 -0.0062,-0.0858 -0.0079,-0.17184 -0.0123,-0.25774 -7.93e-4,-0.0178 -0.0016,-0.0356 -0.0026,-0.0534 -0.0024,-0.0458 -0.0028,-0.0458 -0.0057,-0.0892 -7.94e-4,-0.0106 -0.0013,-0.0212 -0.0021,-0.0319 -5.29e-4,-0.007 -0.0046,-0.0156 -0.0011,-0.0222 0.0058,-0.0112 0.01783,-0.0179 0.02674,-0.0269 0.0011,5.6e-4 0.0028,5.6e-4 0.0034,0.002 0.0029,0.005 0.0085,0.0326 0.0087,0.0331 0.0093,0.043 0.01744,0.0862 0.0258,0.12932 0.0075,0.0433 0.01408,0.0775 0.01921,0.12129 0.0048,0.0409 0.0069,0.074 0.0068,0.11494 -4.5e-5,0.0158 -0.0011,0.0316 -0.0016,0.0473 -5.29e-4,0.0131 -0.0016,0.0262 -0.0024,0.0393 -0.0011,0.0212 -0.0021,0.0333 -0.0021,0.0536 -5e-6,0.004 0.0031,0.009 2.64e-4,0.012 -0.007,0.008 -0.01707,0.0129 -0.02661,0.0175 -0.0056,0.003 0.02101,-0.0354 0.0021,-0.0185 0.003,-0.0782 0.0049,-0.15649 0.0079,-0.23472 7.94e-4,-0.0181 0.0013,-0.0363 0.0024,-0.0544 0.0057,-0.12179 -2.35e-4,0.0144 0.0052,-0.0988 0.0016,-0.0326 0.0024,-0.0653 0.0047,-0.0979 2.01e-4,-0.006 5.29e-4,-0.0113 5.29e-4,-0.0169 5.3e-5,-0.003 -0.0024,-0.007 -1.4e-4,-0.009 0.0073,-0.007 0.0168,-0.012 0.02604,-0.0165 0.0016,-7.7e-4 -0.0016,0.003 -0.0021,0.005 -0.0021,0.008 -0.0045,0.0246 -0.0056,0.0315 -0.0098,0.0662 -0.01802,0.13264 -0.02254,0.19942 -5.29e-4,0.008 -0.0021,0.0315 -0.0024,0.0411 -1.11e-4,0.002 0.0016,0.006 -1.46e-4,0.007 -0.0076,0.007 -0.01688,0.0115 -0.02617,0.0156 -0.0043,0.002 0.01416,-0.0207 0.0032,-0.0138 0.0035,-0.0295 0.0054,-0.0591 0.0052,-0.0888 7.94e-4,-0.0316 0.0021,-0.0633 0.0062,-0.0947 0.0026,-0.0194 0.0052,-0.0388 0.008,-0.0582 0,0 0.02773,-0.0132 0.02773,-0.0132 z"
                 id="path5233"
                 style="fill:#cfee91;fill-opacity:1;stroke:none;stroke-width:0.27899998;stroke-miterlimit:4;stroke-dasharray:none" />
              <path
                 inkscape:connector-curvature="0"
                 d="m 45.039708,291.47733 c -5.29e-4,0.003 -0.0013,0.005 -0.0019,0.008 -0.0043,0.0205 -0.0074,0.0412 -0.01061,0.0619 -0.0047,0.0299 -0.0059,0.0387 -0.01037,0.0696 -0.0089,0.0631 -0.01746,0.12631 -0.02471,0.18966 -5.29e-4,0.006 -0.0013,0.0125 -0.0019,0.0187 -5.29e-4,0.005 -0.0011,0.01 -0.0013,0.0146 -2.64e-4,0.003 -5.29e-4,0.006 -7.93e-4,0.01 -7.4e-5,9.3e-4 7.93e-4,0.002 -1.8e-4,0.003 -0.03259,0.0119 -0.02789,0.0143 -0.02477,-0.009 0.0093,-0.0688 0.01797,-0.13765 0.02477,-0.20673 0.0026,-0.0289 0.0046,-0.0578 0.0059,-0.0867 2.32e-4,-0.005 5.29e-4,-0.0107 5.29e-4,-0.0161 4.2e-5,-0.003 -0.0024,-0.007 -1.62e-4,-0.008 0.0077,-0.003 0.01672,-0.002 0.02511,-0.003 -0.0011,0.007 -0.0021,0.0132 -0.0031,0.0198 -0.0028,0.0217 -0.0057,0.0536 -0.0076,0.0743 -0.0043,0.0469 -0.0063,0.068 -0.0095,0.11603 -0.0016,0.022 -0.0026,0.0439 -0.0039,0.0659 -0.005,0.0982 -0.0068,0.19663 -0.006,0.29499 1.11e-4,0.007 1.72e-4,0.014 2.64e-4,0.021 1.03e-4,0.004 9.5e-5,0.009 5.29e-4,0.0134 7.94e-4,0.0103 0.01426,0.0246 -0.02506,0.0144 -0.0051,-10e-4 0.0019,-0.0104 0.0028,-0.0156 0.0013,-0.009 0.0026,-0.0182 0.0039,-0.0272 0.0019,-0.0132 0.0038,-0.0263 0.0059,-0.0395 0.0027,-0.017 0.0057,-0.034 0.0085,-0.051 0.0069,-0.0422 0.01413,-0.0885 0.02027,-0.13068 0.0086,-0.0592 0.0117,-0.0845 0.01945,-0.14365 0.0068,-0.0555 0.01259,-0.11108 0.0181,-0.16671 0.0021,-0.0226 0.0042,-0.0451 0.0072,-0.0676 0.0027,-0.01 0.0046,-0.0194 0.02894,-0.006 0.0057,0.003 1.24e-4,0.013 2.4e-5,0.0195 -2.65e-4,0.0238 -0.0011,0.0437 -0.0031,0.0677 -0.0013,0.0153 -0.003,0.0305 -0.0046,0.0458 -0.0019,0.0168 -0.0038,0.0335 -0.0058,0.0503 -0.0058,0.049 -0.0073,0.0569 -0.01241,0.10604 -0.0048,0.0466 -0.0083,0.0933 -0.01119,0.14004 -0.0016,0.0293 -0.0031,0.0587 -0.0039,0.088 -1.51e-4,0.005 -2.65e-4,0.0104 -2.65e-4,0.0156 -1.21e-4,0.008 -0.0021,0.007 5.3e-4,0.009 -0.0089,0.002 -0.01831,0.009 -0.02673,0.006 -0.0051,-0.002 0.0011,-0.011 0.0016,-0.0165 0.0041,-0.0473 0.0079,-0.0945 0.0117,-0.14183 0.004,-0.0628 0.009,-0.1258 0.0079,-0.1888 -0.0013,-0.0126 -0.0037,-0.0188 0.02635,-0.0166 0.0043,3.2e-4 -0.0011,0.009 -0.0016,0.0128 -7.94e-4,0.008 -0.0019,0.0154 -0.0027,0.0232 -0.0038,0.0362 -0.0036,0.0384 -0.0065,0.0776 -0.007,0.11378 -5.3e-4,0.22775 0.0056,0.34141 0.0024,0.0347 0.0044,0.0694 0.0076,0.10408 5.29e-4,0.006 0.0011,0.0118 0.0019,0.0176 2.65e-4,0.003 0.0037,0.006 0.0016,0.008 -0.0075,0.006 -0.01762,0.008 -0.02643,0.0118 5.29e-4,-0.004 0.0013,-0.009 0.0019,-0.013 0.0021,-0.019 0.004,-0.0408 0.0052,-0.0595 0.0024,-0.036 0.0038,-0.0661 0.0039,-0.10261 6.3e-5,-0.022 -5.29e-4,-0.0439 -0.0011,-0.0659 -0.0029,-0.11774 -0.01492,-0.23514 -0.03313,-0.35146 -0.0024,-0.0147 -0.0049,-0.0293 -0.0074,-0.0439 -0.0027,-0.0134 -0.007,-0.0379 -0.01162,-0.0524 -0.0011,-0.003 -0.0019,-0.007 -0.0042,-0.009 -7.94e-4,-7.7e-4 -0.0035,0.002 -0.0024,0.002 0.02942,-0.006 0.02487,-0.0154 0.02005,0.0137 -0.0096,0.0774 -0.01857,0.15498 -0.02796,0.23246 -0.0077,0.0664 -0.01688,0.13252 -0.02817,0.19837 -0.0024,0.0129 -0.0038,0.0207 -0.0064,0.033 -5.29e-4,0.002 2.64e-4,0.006 -0.0016,0.007 -0.0082,0.006 -0.01709,0.013 -0.02726,0.0143 -0.0035,4.7e-4 -1.48e-4,-0.007 1.99e-4,-0.0107 5.29e-4,-0.006 0.0016,-0.0115 0.0026,-0.0173 0.01045,-0.0665 0.01545,-0.13357 0.02035,-0.20061 0.0019,-0.0277 0.0038,-0.0554 0.0061,-0.0831 5.3e-4,-0.007 0.0011,-0.0183 0.0031,-0.0255 2.65e-4,-0.001 0.0011,-0.002 0.0016,-0.003 0.0099,-0.002 0.02,-0.01 0.02983,-0.007 0.0054,0.002 0.0021,0.0111 0.0031,0.0166 0.0016,0.009 0.0033,0.0188 0.0049,0.0282 0.0079,0.0457 0.01545,0.0915 0.0227,0.13734 0.0026,0.017 0.0053,0.0339 0.0078,0.0509 0.0062,0.0418 0.0069,0.0484 0.01228,0.0888 0.0034,0.0255 0.0067,0.051 0.01101,0.0763 0.0038,0.009 0.0123,0.0249 -0.02249,0.0151 -0.005,-10e-4 0.0028,-0.0101 0.0037,-0.0152 0.0016,-0.009 0.0028,-0.0179 0.0038,-0.0269 0.004,-0.0346 0.004,-0.0454 0.0059,-0.0818 0.0019,-0.0679 5.29e-4,-0.1358 -0.0036,-0.20355 -0.0019,-0.0317 -0.0034,-0.0456 -0.0061,-0.0761 -0.0019,-0.016 -0.0031,-0.0299 -0.0059,-0.0455 -7.94e-4,-0.004 -0.0016,-0.008 -0.0028,-0.0125 -5.29e-4,-0.002 -0.0011,-0.004 -0.0028,-0.005 -7.93e-4,-5.5e-4 -0.0029,0.003 -0.0019,0.003 0.0077,-0.002 0.01503,-0.005 0.02254,-0.008 -0.0011,0.005 -0.0026,0.009 -0.0035,0.0142 -0.003,0.0147 -0.0062,0.0379 -0.0078,0.0519 -0.0047,0.04 -0.0069,0.0803 -0.0096,0.12051 -0.0058,0.0811 -0.01328,0.16207 -0.0226,0.24284 -7.94e-4,0.007 -0.0019,0.0148 -0.0027,0.0222 -5.3e-4,0.005 -0.0013,0.0105 -0.0019,0.0158 -2.64e-4,0.003 -0.0011,0.006 -0.0013,0.009 -4.8e-5,4.5e-4 5.29e-4,10e-4 1.69e-4,10e-4 -0.03251,0.009 -0.02769,0.0123 -0.02032,-0.0132 0.02368,-0.0845 0.03383,-0.17188 0.04448,-0.25873 0.0042,-0.0352 0.0081,-0.0705 0.01206,-0.10572 7.94e-4,-0.006 0.0013,-0.012 0.0021,-0.018 2.65e-4,-0.003 -0.0011,-0.007 0.0013,-0.008 0.0081,-0.006 0.01834,-0.008 0.02748,-0.012 -0.0016,0.0636 -0.004,0.12721 -0.0047,0.19084 -2.38e-4,0.0225 -1.82e-4,0.0451 -2.64e-4,0.0676 2.64e-4,0.099 0.005,0.19803 0.01138,0.29685 2.64e-4,0.006 7.93e-4,0.0124 0.0011,0.0186 7.94e-4,0.0156 0.0019,0.022 -0.02638,0.0258 -0.0042,5.6e-4 -0.0019,-0.008 -0.0021,-0.0124 -7.93e-4,-0.0122 -1.77e-4,-0.05 -9.8e-5,-0.0581 0.0034,-0.0973 0.0093,-0.19446 0.01463,-0.29164 0.0011,-0.0169 0.0016,-0.0296 0.0033,-0.0459 2.65e-4,-0.003 -0.0011,-0.007 0.0011,-0.009 0.0078,-0.007 0.01664,-0.014 0.02685,-0.0163 0.0033,-7.4e-4 0.0016,0.007 0.0019,0.01 2.65e-4,0.005 -2.38e-4,0.0107 -2.65e-4,0.0161 -5.29e-4,0.008 -0.0011,0.0165 -0.0016,0.0247 -0.0021,0.0335 -0.0026,0.0351 -0.0044,0.0704 -0.0021,0.0433 -0.0035,0.0867 -0.0052,0.13009 -0.0027,0.0517 -0.0055,0.10352 -0.0109,0.15504 -5.29e-4,0.002 -7.94e-4,0.005 -0.0013,0.007 -0.003,0.0109 -0.02983,0.0142 -0.03033,0.0143 -0.0024,3.7e-4 -0.0016,-0.004 -0.0021,-0.007 -0.0028,-0.009 -0.0031,-0.012 -0.0052,-0.0222 -0.0057,-0.0276 -0.0087,-0.0558 -0.01558,-0.0832 -5.3e-4,-9.8e-4 -5.3e-4,-0.002 -0.0013,-0.003 -5.3e-4,-4e-4 -5.3e-4,0.002 7.6e-5,0.002 0.0088,-0.004 0.01659,-0.0101 0.02574,-0.0131 0.0016,-5e-4 -2.64e-4,0.003 -2.64e-4,0.005 -2.9e-5,0.003 5.29e-4,0.0122 7.93e-4,0.0148 0.0011,0.0102 0.0016,0.0205 0.0034,0.0306 1.62e-4,9.3e-4 0.0016,0.002 7.94e-4,0.003 -0.0086,0.005 -0.01799,0.008 -0.02697,0.0124 0.0049,-0.031 0.0084,-0.0621 0.01244,-0.0932 0.0027,-0.0205 0.0053,-0.0409 0.0079,-0.0614 5.29e-4,-0.004 0.0011,-0.008 0.0016,-0.0125 2.62e-4,-0.002 -0.0011,-0.005 7.94e-4,-0.006 0.0084,-0.004 0.01796,-0.005 0.02696,-0.008 -0.0037,0.0382 -0.0062,0.0765 -0.0088,0.11476 -0.0013,0.0188 -0.0024,0.0376 -0.0035,0.0563 -5.29e-4,0.007 -7.94e-4,0.0149 -0.0021,0.0222 -0.0093,0.004 -0.01799,0.0104 -0.02804,0.0115 -0.0028,2.9e-4 -2.64e-4,-0.006 -5.29e-4,-0.008 -1.11e-4,-0.004 -10e-5,-0.009 -1.08e-4,-0.0134 -3.2e-5,-0.0219 1.61e-4,-0.0438 5.29e-4,-0.0657 2.64e-4,-0.0221 0.0011,-0.0442 0.0019,-0.0663 1.11e-4,-0.003 0.0011,-0.0172 5.29e-4,-0.0218 0.0093,-0.003 0.01818,-0.009 0.02792,-0.009 0.0034,1.7e-4 -1.03e-4,0.007 -2.65e-4,0.0101 -0.0013,0.026 -0.0034,0.0521 -0.0051,0.0781 -0.0024,0.0393 -0.0057,0.0785 -0.01024,0.11757 -5.29e-4,0.003 -7.93e-4,0.007 -0.0013,0.0102 -2.65e-4,0.002 -5.3e-4,0.005 -7.94e-4,0.007 -1.99e-4,0.002 -5.29e-4,0.003 -5.29e-4,0.005 -6.9e-5,5.3e-4 2.64e-4,10e-4 -1.83e-4,0.002 -0.02958,0.0141 -0.0277,0.0215 -0.02795,0.006 2.65e-4,-0.0348 0.0011,-0.0697 0.0026,-0.10445 0.0013,-0.0406 0.0068,-0.0808 0.01302,-0.12093 0,0 0.02397,-0.0118 0.02397,-0.0118 v 0 c -0.0061,0.04 -0.01164,0.0801 -0.01299,0.12058 -0.0013,0.0342 -0.0016,0.0685 1.8e-4,0.10278 0.0013,0.0152 0.0019,0.005 -0.0267,0.0206 -5.29e-4,2.6e-4 7.94e-4,-7.4e-4 0.0011,-10e-4 5.29e-4,-0.002 0.0024,-0.012 0.0024,-0.0124 5.3e-4,-0.003 0.0011,-0.007 0.0016,-0.0105 0.006,-0.0392 0.0097,-0.0786 0.01185,-0.11813 0.0013,-0.0256 0.0032,-0.0513 0.0031,-0.0769 -1.3e-5,-0.003 -0.0026,-0.007 -5.29e-4,-0.009 0.0075,-0.008 0.01802,-0.0118 0.02703,-0.0178 -5.3e-4,2.1e-4 -0.0013,1.4e-4 -0.0013,6.1e-4 -0.0011,0.004 -0.0024,0.0201 -0.0026,0.0212 -0.0019,0.0222 -0.0026,0.0444 -0.0028,0.0666 5e-5,0.0216 2.01e-4,0.0431 0.0013,0.0647 2.19e-4,0.004 5.29e-4,0.009 7.93e-4,0.0129 2.1e-4,0.002 0.0027,0.006 7.94e-4,0.007 -0.0076,0.007 -0.01757,0.0108 -0.02635,0.0162 5.29e-4,-9e-4 0.0013,-0.002 0.0016,-0.003 0.0016,-0.005 0.0024,-0.0148 0.003,-0.0197 0.0021,-0.0189 0.0032,-0.0379 0.0047,-0.0568 0.0016,-0.0226 0.0027,-0.0452 0.0041,-0.0678 7.94e-4,-0.0133 0.0016,-0.0214 0.0021,-0.0344 1.3e-4,-0.004 1.17e-4,-0.007 1.75e-4,-0.011 0.0089,-0.006 0.01691,-0.0141 0.02664,-0.0191 0.0021,-10e-4 -0.0013,0.004 -0.0019,0.007 -0.0054,0.0245 -0.0075,0.0497 -0.01109,0.0745 -0.0024,0.0203 -0.0046,0.0405 -0.0066,0.0609 -1.74e-4,0.002 -0.0021,0.0213 -0.0024,0.025 -1.16e-4,0.002 -1.3e-5,0.004 -2.1e-5,0.006 -0.0092,0.005 -0.01805,0.011 -0.02773,0.0151 -0.0011,4.2e-4 -2.27e-4,-0.002 -2.64e-4,-0.003 -0.0011,-0.0103 -0.0019,-0.0206 -0.0031,-0.0309 -5.3e-4,-0.005 -0.0011,-0.01 -0.0013,-0.0148 -1.22e-4,-0.002 -0.0016,-0.004 -2.38e-4,-0.005 0.0081,-0.007 0.01741,-0.0129 0.02671,-0.0184 7.94e-4,-4e-4 0.0013,0.001 0.0016,0.002 5.3e-4,0.001 5.3e-4,0.002 7.94e-4,0.004 0.0044,0.0279 0.0084,0.056 0.01474,0.0835 0.0024,0.01 0.0028,0.0125 0.006,0.0213 7.93e-4,0.002 0.0037,0.004 0.0024,0.005 -0.0073,0.007 -0.01683,0.0107 -0.02529,0.016 -7.94e-4,5.9e-4 0.0021,-8.7e-4 0.0027,-0.002 0.0013,-0.002 0.0016,-0.005 0.0024,-0.007 0.0087,-0.052 0.01233,-0.10467 0.01574,-0.15718 5.29e-4,-0.0144 0.0013,-0.0287 0.0019,-0.0431 0.0011,-0.0289 0.0016,-0.0578 0.0024,-0.0866 2.57e-4,-0.008 0.0021,-0.0588 0.0024,-0.0693 1.82e-4,-0.008 1.71e-4,-0.016 2.56e-4,-0.0239 -0.0011,-0.0206 -0.006,-0.0274 0.02323,-0.0354 0.0032,-8.7e-4 -0.0021,0.006 -0.0027,0.01 -0.003,0.0151 -0.0045,0.032 -0.0061,0.0471 -0.0088,0.0968 -0.01556,0.19401 -0.01442,0.29129 5.29e-4,0.0115 7.94e-4,0.023 0.0016,0.0344 5.29e-4,0.007 0.0016,0.0143 0.0021,0.0214 0.0013,0.0142 0.0032,0.0164 -0.02341,0.023 -0.0095,0.002 0.02357,-0.0424 0.0019,-0.0293 -0.0016,-0.10002 -0.0044,-0.2 -0.0054,-0.30002 -5.29e-4,-0.084 -1.51e-4,-0.16818 -0.0045,-0.25214 0.0086,-0.005 0.01611,-0.0129 0.02574,-0.0158 0.003,-9e-4 -0.0021,0.006 -0.0028,0.009 -0.0013,0.006 -0.0024,0.0124 -0.0035,0.0187 -0.0061,0.0356 -0.01058,0.0715 -0.01545,0.10736 -0.01114,0.0858 -0.0204,0.17214 -0.03957,0.25668 -0.006,0.0288 0.0011,0.0149 -0.03263,0.0381 -5.29e-4,3.7e-4 0.0011,-8.5e-4 0.0013,-0.001 0.0011,-0.003 0.0019,-0.006 0.0024,-0.009 0.0021,-0.0106 0.0051,-0.029 0.0067,-0.0389 0.01204,-0.0808 0.02016,-0.1622 0.0249,-0.2438 0.0037,-0.0616 0.0057,-0.12359 0.015,-0.18469 0.0096,-0.008 0.01852,-0.016 0.02868,-0.0227 0.0033,-0.002 0.005,0.004 0.0057,0.008 0.0039,0.0197 0.0034,0.0402 0.0055,0.0601 0.0052,0.0935 0.009,0.18707 0.0083,0.28071 -0.0011,0.04 -7.94e-4,0.043 -0.003,0.0805 -5.29e-4,0.009 -0.0013,0.0174 -0.0021,0.0262 -5.29e-4,0.005 0.0019,0.0114 -0.0016,0.0151 -0.0077,0.008 -0.01826,0.0138 -0.02888,0.0175 -0.0024,7.9e-4 -5.29e-4,-0.005 -0.0011,-0.007 -0.006,-0.0732 -0.01365,-0.14628 -0.02569,-0.21874 -0.0094,-0.0545 -0.019,-0.10895 -0.03295,-0.16251 -0.0013,-0.005 -0.007,-0.0107 -0.0044,-0.0153 0.0052,-0.009 0.01627,-0.0127 0.02442,-0.019 -0.0011,4.8e-4 -0.0027,4.3e-4 -0.0033,10e-4 -0.0032,0.006 -0.0048,0.022 -0.0053,0.0262 -0.0036,0.0279 -0.006,0.056 -0.0083,0.084 -0.0052,0.0665 -0.01011,0.13292 -0.01728,0.19919 -5.29e-4,0.005 -7.94e-4,0.011 -0.0013,0.0165 -0.0013,0.0149 -0.0013,0.0137 -0.02609,0.0223 -0.0026,8.7e-4 0.0021,-0.005 0.0028,-0.008 0.003,-0.0102 0.0058,-0.0237 0.008,-0.0337 0.01315,-0.0661 0.02286,-0.13282 0.03121,-0.1997 0.0096,-0.0767 0.01823,-0.15353 0.02424,-0.23061 5.29e-4,-0.006 -0.0021,-0.0138 0.0016,-0.0192 0.0069,-0.0103 0.01781,-0.0174 0.02782,-0.0247 0.0011,-7.7e-4 0.0028,7.7e-4 0.0033,0.002 0.0026,0.005 0.0061,0.0313 0.0062,0.032 0.0016,0.011 0.0031,0.022 0.0046,0.033 0.01016,0.0823 0.01929,0.16471 0.0269,0.24729 0.0024,0.0262 0.0049,0.0523 0.0068,0.0785 0.0016,0.0238 0.0026,0.0476 0.0038,0.0715 7.94e-4,0.0217 0.0019,0.0435 0.0024,0.0652 0.0011,0.0399 5.3e-4,0.0624 -5.29e-4,0.10101 -5.29e-4,0.0193 -0.0016,0.0386 -0.0019,0.0578 -6.9e-5,0.004 1.32e-4,0.009 1.99e-4,0.0128 -0.0092,0.005 -0.01733,0.0127 -0.02755,0.0149 -0.0029,6.3e-4 -5e-5,-0.006 -1.16e-4,-0.009 -1.35e-4,-0.006 -2.65e-4,-0.0122 -5.29e-4,-0.0183 -0.0011,-0.0354 -0.0024,-0.0707 -0.0037,-0.1061 -0.0041,-0.1136 -0.01045,-0.22728 -0.007,-0.34098 5.3e-4,-0.0144 0.0011,-0.0287 0.0016,-0.0431 7.94e-4,-0.0185 0.0021,-0.0369 0.0027,-0.0554 1.4e-4,-0.004 -0.0026,-0.009 1.4e-4,-0.0119 0.0073,-0.008 0.01714,-0.0127 0.027,-0.0165 0.0021,-7.7e-4 -5.3e-4,0.004 -7.94e-4,0.006 -0.0042,0.0637 -0.0077,0.12741 -0.01215,0.19108 -0.0026,0.0382 -0.0052,0.0764 -0.0069,0.11458 -2.65e-4,0.008 -5.29e-4,0.0168 -7.94e-4,0.0251 -1.19e-4,0.005 0.003,0.0116 -1.75e-4,0.0159 -0.0069,0.009 -0.01834,0.014 -0.02752,0.021 2.54e-4,-2.9e-4 7.94e-4,-5e-4 7.94e-4,-8.7e-4 0.0011,-0.005 0.0024,-0.0219 0.0026,-0.025 0.0024,-0.0298 0.0046,-0.0597 0.007,-0.0896 0.0037,-0.047 0.0079,-0.094 0.01286,-0.14097 0.0122,-0.11465 -5.29e-4,0.008 0.01193,-0.1058 0.0019,-0.0166 0.0034,-0.0333 0.0051,-0.0499 0.003,-0.039 0.0043,-0.0456 0.0044,-0.0828 4.2e-5,-0.009 -2.46e-4,-0.0189 -7.94e-4,-0.0283 -2.65e-4,-0.006 -0.0047,-0.0132 -0.0016,-0.0184 0.0093,-0.0151 0.03808,-0.0261 0.02315,-0.0202 -0.0011,0.004 -0.0024,0.008 -0.0033,0.0123 -0.0035,0.0168 -0.007,0.0417 -0.0092,0.0577 -0.0079,0.0562 -0.01479,0.1125 -0.02217,0.16875 -0.0093,0.0707 -0.01876,0.14133 -0.02827,0.21198 -0.005,0.0369 -0.01037,0.0738 -0.01484,0.11086 -0.0016,0.0128 -0.0027,0.0257 -0.004,0.0385 -7.94e-4,0.009 -0.0016,0.0176 -0.0021,0.0264 -2.64e-4,0.005 0.0024,0.0113 -7.93e-4,0.015 -0.02835,0.032 -0.0284,0.026 -0.02778,0.0117 2.01e-4,-0.005 5.29e-4,-0.009 7.93e-4,-0.014 2.65e-4,-0.007 5.3e-4,-0.0144 7.94e-4,-0.0216 0.0038,-0.0993 0.0072,-0.19866 0.01167,-0.29796 0.0011,-0.0219 0.0021,-0.0437 0.0032,-0.0656 0.0033,-0.0638 0.0032,-0.0539 0.0066,-0.11462 7.94e-4,-0.0152 0.0028,-0.0549 0.0039,-0.0726 5.29e-4,-0.006 0.0011,-0.0127 0.0016,-0.0191 0.0092,-0.008 0.01714,-0.0172 0.02764,-0.023 0.0024,-10e-4 -7.94e-4,0.006 -0.0011,0.008 -0.0039,0.0347 -0.0057,0.0697 -0.0096,0.10445 -0.0071,0.0684 -0.01598,0.13654 -0.02143,0.20505 -0.0013,0.0253 0.0033,0.0145 -0.02811,0.0346 -7.93e-4,5.8e-4 0.0013,-0.002 0.0016,-0.003 7.94e-4,-0.003 0.0011,-0.007 0.0016,-0.01 0.0016,-0.0113 0.0029,-0.0227 0.0047,-0.034 0.0089,-0.0636 0.01852,-0.1271 0.0269,-0.19077 0.0058,-0.0457 0.01151,-0.0914 0.01746,-0.13707 0,0 0.02748,-0.0132 0.02748,-0.0132 z"
                 id="path5235"
                 style="fill:#cfee91;fill-opacity:1;stroke:none;stroke-width:0.27899998;stroke-miterlimit:4;stroke-dasharray:none" />
              <path
                 inkscape:connector-curvature="0"
                 d="m 44.965249,292.3927 c 7.94e-4,0.0843 -0.0019,0.16852 -0.0047,0.25273 -0.0065,0.13337 -0.01693,0.26657 -0.03073,0.39938 -0.0079,0.0746 -0.01651,0.14912 -0.02103,0.22402 7.94e-4,0.0188 0.0044,0.056 -0.05237,0.0215 -0.01209,-0.007 0.0053,-0.0278 0.0079,-0.0417 0.01669,-0.0879 0.03376,-0.1757 0.05067,-0.26355 0.04641,-0.24472 0.07731,-0.49198 0.101142,-0.7398 0.0039,-0.0466 0.0075,-0.0868 0.01029,-0.13288 7.94e-4,-0.0111 0.0013,-0.0222 0.0016,-0.0333 4.7e-5,-0.004 -0.0043,-0.01 -0.0011,-0.0115 0.0664,-0.0374 0.05389,-0.0255 0.04725,0.0177 -0.0276,0.21504 -0.04973,0.43077 -0.0729,0.64633 -0.01786,0.17293 -0.03603,0.34582 -0.05548,0.51858 -0.0011,0.009 -0.0024,0.019 -0.0034,0.0285 -0.0027,0.0249 0.0038,0.0358 -0.05493,0.0308 -0.0082,-6.9e-4 0.0027,-0.0163 0.004,-0.0245 0.0084,-0.052 0.0068,-0.043 0.0155,-0.10214 0.02003,-0.1448 0.0376,-0.29012 0.04727,-0.43603 0.0021,-0.0307 0.0033,-0.0614 0.0049,-0.0921 0.003,-0.0717 0.0047,-0.14353 0.0046,-0.21532 -2.1e-5,-0.0136 7.9e-5,-0.0503 -0.0021,-0.0676 -1.93e-4,-0.002 -0.0013,-0.003 -0.0019,-0.004 0.01778,-0.002 0.03948,-0.0183 0.05335,-0.007 0.01275,0.0104 -0.0011,0.033 -0.0016,0.0494 -0.0016,0.0733 -0.0016,0.0986 -0.0013,0.1763 9.5e-5,0.0414 -2.65e-4,0.0828 5.29e-4,0.12424 0.0011,0.0471 0.0034,0.0941 0.0052,0.14109 0.01199,0.2045 0.03627,0.40826 0.07413,0.60961 0.01632,0.0869 0.02986,0.14269 0.04913,0.22691 0.0087,0.0355 0.02363,0.0983 0.03479,0.13609 0.0035,0.012 0.0065,0.0243 0.01201,0.0355 0.0021,0.004 0.01424,0.007 0.01029,0.0101 -0.06854,0.0477 -0.03636,-0.006 -0.0273,-0.0311 0.05837,-0.19498 0.08949,-0.39714 0.111884,-0.59908 0.0062,-0.0556 0.01072,-0.11135 0.01609,-0.16703 0.01622,-0.19646 0.02606,-0.39382 0.01778,-0.59094 -0.0035,-0.0842 -0.0067,-0.1047 -0.01497,-0.18345 -0.003,-0.0182 -0.0087,-0.068 -0.01924,-0.0895 -0.0016,-0.003 -0.01304,-0.005 -0.0094,-0.007 0.01326,-0.005 0.03487,-0.0184 0.04229,-0.006 0.0096,0.0158 -0.0097,0.0357 -0.0132,0.0539 -0.0056,0.0289 -0.0095,0.0582 -0.01426,0.0872 -0.0051,0.0389 -0.01045,0.0777 -0.01513,0.11656 -0.01796,0.1495 -0.03236,0.29944 -0.04767,0.44923 -0.01445,0.14114 -0.01426,0.13815 -0.02871,0.27286 -0.0078,0.0799 -0.02027,0.15929 -0.02667,0.23931 -7.94e-4,0.008 0.0053,0.0198 -0.0011,0.0255 -0.0679,0.0618 -0.05319,0.0236 -0.04885,-0.01 0.0021,-0.0202 0.0043,-0.0403 0.0064,-0.0605 0.0069,-0.0695 0.01061,-0.11282 0.01728,-0.18402 0.0079,-0.0845 0.01588,-0.16036 0.02167,-0.24529 0.0031,-0.0459 0.005,-0.0918 0.0075,-0.13772 0.0046,-0.12108 0.0055,-0.24233 0.0016,-0.36345 -7.94e-4,-0.0277 -0.0046,-0.10933 -0.008,-0.14238 -0.0013,-0.0117 -0.0038,-0.0233 -0.0057,-0.0349 -0.0021,-0.003 -0.0043,-0.007 -0.0065,-0.0103 0.01548,-0.004 0.03345,-0.0221 0.0464,-0.0126 0.01093,0.008 -0.0071,0.0261 -0.0097,0.0394 -0.0041,0.0205 -0.0072,0.0412 -0.01037,0.0619 -0.006,0.0397 -0.01638,0.11907 -0.02154,0.1581 -0.0089,0.0681 -0.01807,0.13622 -0.02808,0.20418 -0.0021,0.0138 -0.0081,0.0553 -0.01225,0.0723 -0.0011,0.005 -0.0033,0.009 -0.005,0.0142 -0.01921,0.0107 -0.03667,0.0255 -0.05762,0.0322 -0.0043,10e-4 -0.0058,-0.007 -0.0079,-0.0111 -0.0027,-0.005 -0.0043,-0.0111 -0.0062,-0.0168 -0.0076,-0.0234 -0.01357,-0.0475 -0.02027,-0.0712 -0.0064,-0.0205 -0.01177,-0.0414 -0.01921,-0.0615 -0.0016,-0.004 -0.0031,-0.009 -0.0051,-0.0126 -0.0011,-0.002 -0.0016,-0.006 -0.0043,-0.007 -0.0016,-5e-4 -7.94e-4,0.003 -0.0011,0.005 0.01627,-0.007 0.0312,-0.021 0.04879,-0.0202 0.0074,3.2e-4 -0.0019,0.0148 -0.0026,0.0222 -7.94e-4,0.0108 -0.0013,0.0215 -0.0019,0.0323 -0.0019,0.042 -0.0021,0.0842 -0.0027,0.12623 -1.74e-4,0.0297 -0.0021,0.0593 -0.0021,0.089 -1.1e-5,0.003 0.0026,0.007 2.64e-4,0.008 -0.06038,0.0363 -0.05764,0.042 -0.05182,0.0112 0.01122,-0.0786 0.01982,-0.15752 0.03063,-0.23618 0.0097,-0.0771 0.02543,-0.15319 0.0425,-0.22896 0.0013,-0.006 0.0028,-0.0127 0.0042,-0.0191 0.0011,-0.005 0.0021,-0.01 0.003,-0.0148 5.29e-4,-0.003 -0.0016,-0.008 0.0011,-0.009 0.05837,-0.0209 0.05714,-0.037 0.048,-8.5e-4 -0.01717,0.0772 -0.03143,0.1549 -0.04705,0.23237 -0.007,0.0343 -0.01495,0.0684 -0.02254,0.10252 -0.0037,0.0168 -0.007,0.0335 -0.01244,0.0499 -0.01132,0.0203 -0.01003,0.0199 -0.05972,0.0235 -0.0052,3.7e-4 -0.0013,-0.0103 -0.0016,-0.0155 -0.0019,-0.0275 -0.0013,-0.0553 -0.0016,-0.0828 -5.29e-4,-0.0291 -1.53e-4,-0.0583 -0.0011,-0.0874 -2.65e-4,-0.0113 -5.3e-4,-0.0233 -0.0032,-0.0344 0.01804,-0.008 0.03535,-0.0184 0.0541,-0.0249 0.0024,-7.7e-4 -0.0016,0.005 -0.0021,0.007 -7.94e-4,0.004 -0.0011,0.008 -0.0016,0.0121 -0.0016,0.0151 -0.0024,0.0304 -0.0034,0.0455 -0.0033,0.0292 -0.0013,0.0225 -0.05792,0.0355 -0.0033,7.6e-4 -7.94e-4,-0.007 -0.0011,-0.0102 -5.29e-4,-0.008 -7.93e-4,-0.0223 -0.0011,-0.0303 5.29e-4,-0.0479 0.0057,-0.0955 0.0085,-0.14327 0.0024,-0.0349 0.0024,-0.0699 0.0052,-0.10474 0.01842,-0.009 0.03555,-0.0215 0.05522,-0.0274 0.0033,-0.001 0.0011,0.007 0.0013,0.0104 2.64e-4,0.005 2.64e-4,0.0107 2.64e-4,0.0161 5.29e-4,0.025 -2.17e-4,0.0498 -0.0016,0.0748 -0.0034,0.0431 -0.0075,0.0862 -0.01437,0.12895 -0.0033,0.0194 -0.0051,0.0389 -0.009,0.0581 -0.0069,0.0299 -0.01212,0.0267 -0.05901,0.0457 -0.0028,10e-4 -0.0035,-0.005 -0.0046,-0.008 -0.0024,-0.006 -0.0033,-0.0184 -0.004,-0.0245 -0.0047,-0.0474 0.0013,-0.0946 0.0089,-0.14139 0.006,-0.0332 0.0113,-0.0666 0.0209,-0.099 0.0078,-0.025 0.04665,-0.059 0.06357,-0.0315 0.008,0.0129 0.01058,0.0297 0.0141,0.0441 0.0099,0.0494 0.01378,0.0997 0.01741,0.14995 0.0026,0.0238 0.0016,0.048 0.0039,0.0718 0.0021,0.0112 0.0072,0.0219 0.01336,0.0314 0.0039,0.007 0.0094,0.0144 0.01212,0.0225 0.0011,0.003 0.0013,0.006 0.0021,0.009 0,0 -0.05327,0.0288 -0.05327,0.0288 v 0 c -0.0028,-0.0105 -0.0076,-0.02 -0.01357,-0.0292 -0.0067,-0.0104 -0.01222,-0.022 -0.01479,-0.034 -0.0019,-0.0243 7.94e-4,-0.0489 -0.0013,-0.0733 -0.0024,-0.0499 -0.0065,-0.0998 -0.01744,-0.14865 -0.0032,-0.0116 -0.0053,-0.0209 -0.01,-0.0319 -0.0013,-0.003 -0.0026,-0.006 -0.0045,-0.008 -5.29e-4,-7.4e-4 -0.0032,-7.4e-4 -0.0024,-0.001 0.01577,-0.0108 0.03183,-0.0212 0.0486,-0.0303 0.0019,-10e-4 -0.0021,0.004 -0.0031,0.006 -0.01135,0.0323 -0.01797,0.0659 -0.02416,0.0996 -0.0071,0.0459 -0.01368,0.0923 -0.0075,0.13882 7.94e-4,0.004 0.0011,0.009 0.0021,0.0132 5.29e-4,0.003 0.0013,0.006 0.0021,0.008 1.46e-4,4.8e-4 0.0013,9.8e-4 7.94e-4,10e-4 -0.104902,0.0688 -0.05356,0.044 -0.04665,0.0257 0.0011,-0.003 0.0013,-0.005 0.0021,-0.008 0.0013,-0.006 0.0026,-0.0111 0.0036,-0.0167 0.0024,-0.0138 0.0029,-0.028 0.0063,-0.0417 0.0086,-0.0427 0.01373,-0.0859 0.01685,-0.12932 0.0011,-0.0246 0.0016,-0.0488 -2.1e-5,-0.0734 -2.65e-4,-0.005 -7.94e-4,-0.0101 -0.0013,-0.0152 -2.17e-4,-0.002 -0.0027,-0.006 -7.94e-4,-0.007 0.01651,-0.0119 0.03527,-0.0204 0.0529,-0.0305 -0.0042,0.0109 -0.0037,0.024 -0.0046,0.0355 -0.0016,0.0233 -0.0035,0.0466 -0.0043,0.0699 -0.0027,0.0473 -0.0075,0.0946 -0.0072,0.14202 5.29e-4,0.0113 7.94e-4,0.0183 0.0019,0.0293 2.65e-4,0.003 0.0035,0.007 0.0011,0.009 -0.01651,0.0124 -0.0358,0.0206 -0.05366,0.0309 -7.94e-4,4.7e-4 0.0021,-4.5e-4 0.0026,-10e-4 0.0013,-0.003 0.0013,-0.006 0.0021,-0.009 0.0019,-0.0191 0.0029,-0.0382 0.0037,-0.0574 1.22e-4,-0.003 -0.0021,-0.007 2.54e-4,-0.008 0.0176,-0.0116 0.03751,-0.0191 0.05627,-0.0287 0.0019,0.0415 -0.0013,0.083 5.3e-4,0.1245 7.93e-4,0.0269 0.0011,0.054 0.0039,0.0808 5.3e-4,0.005 0.0055,0.0104 0.0021,0.0135 -0.01524,0.0138 -0.0354,0.0209 -0.05255,0.0321 -0.0013,8.5e-4 0.0031,-4.2e-4 0.0046,-6.1e-4 0.0016,-0.003 0.0035,-0.007 0.0047,-0.0102 0.0031,-0.009 0.009,-0.0328 0.01095,-0.0403 0.0088,-0.0343 0.01741,-0.0687 0.02474,-0.10338 0.01588,-0.0766 0.03027,-0.15341 0.04314,-0.23053 0.0067,-0.0389 -0.0016,-0.0169 0.05976,-0.0535 5.29e-4,-3.8e-4 8.5e-5,10e-4 -6.3e-5,0.002 -5.3e-4,0.003 -0.0016,0.006 -0.0024,0.009 -0.0013,0.005 -0.0024,0.0101 -0.0037,0.0152 -0.0016,0.007 -0.0033,0.013 -0.005,0.0195 -0.01995,0.0758 -0.03689,0.15242 -0.04666,0.23032 -0.01032,0.0776 -0.01871,0.15533 -0.0249,0.23334 -0.0024,0.0316 0.0021,0.0196 -0.05592,0.0423 -0.0028,0.001 0.0011,-0.006 0.0016,-0.009 0.0021,-0.0176 0.0033,-0.0336 0.0042,-0.0515 7.94e-4,-0.013 0.0011,-0.0261 0.0016,-0.0391 7.94e-4,-0.0418 7.94e-4,-0.0836 7.94e-4,-0.12545 5.5e-5,-0.0106 8.4e-5,-0.0212 2.64e-4,-0.0318 1.3e-4,-0.007 -0.004,-0.0164 7.94e-4,-0.022 0.01463,-0.0178 0.03562,-0.0292 0.05343,-0.0439 0.0019,8.7e-4 0.004,0.001 0.0052,0.003 0.0026,0.003 0.008,0.0196 0.0085,0.0212 0.0066,0.0206 0.01148,0.0417 0.01799,0.0624 0.0068,0.0233 0.01291,0.0471 0.02141,0.0699 0.0019,0.005 0.0038,0.0101 0.0064,0.0148 0.0011,0.002 0.0062,0.004 0.0045,0.005 -0.01357,0.0116 -0.02985,0.0196 -0.04477,0.0293 0.0026,-0.005 0.006,-0.009 0.0078,-0.0142 0.0062,-0.0175 0.01394,-0.059 0.01675,-0.0741 0.01262,-0.0683 0.02289,-0.13702 0.03184,-0.20587 0.01426,-0.11497 0.006,-0.0456 0.01841,-0.15662 0.0024,-0.0202 0.0044,-0.0403 0.0068,-0.0605 0.0016,-0.013 -0.0029,-0.0287 0.0054,-0.0388 0.01524,-0.0188 0.03746,-0.0316 0.05963,-0.0412 0.0043,-0.002 0.0026,0.009 0.0038,0.0137 0.0035,0.061 0.0034,0.12212 0.0034,0.18322 -1.35e-4,0.12209 -0.0024,0.24417 -0.0065,0.36619 -0.0021,0.0457 -0.0036,0.0915 -0.0061,0.13713 -0.0089,0.16083 -0.02606,0.3212 -0.03037,0.4823 -2.43e-4,0.0347 0.0085,0.0579 -0.053,0.0607 -0.0094,4.2e-4 0.0038,-0.0185 0.0054,-0.0278 0.0145,-0.0813 0.02643,-0.16309 0.0381,-0.24486 0.01572,-0.12275 0.01955,-0.14755 0.03299,-0.27491 0.01971,-0.18665 0.03459,-0.37374 0.052,-0.5606 0.003,-0.0283 0.0056,-0.0567 0.0091,-0.085 0.0021,-0.0176 -0.0021,-0.0381 0.0078,-0.0528 0.0069,-0.0101 0.05686,-0.078 0.06911,-0.0378 0.0035,0.0114 0.005,0.0233 0.0066,0.0351 0.0026,0.0196 0.0039,0.0393 0.0059,0.0589 0.0046,0.0772 0.0071,0.10568 0.0083,0.18723 0.003,0.19846 -0.008,0.39682 -0.0241,0.59456 -0.005,0.0555 -0.0093,0.11107 -0.0149,0.16653 -0.0199,0.19855 -0.04682,0.39692 -0.09366,0.5911 -0.0035,0.0144 -7.94e-4,0.0319 -0.0104,0.0431 -0.01627,0.0189 -0.03911,0.0324 -0.06235,0.0415 -0.005,0.002 -0.0062,-0.009 -0.0079,-0.0139 -0.004,-0.0122 -0.0061,-0.025 -0.0089,-0.0375 -0.0056,-0.0259 -0.02426,-0.12167 -0.02786,-0.13994 -0.01418,-0.0739 -0.03041,-0.15681 -0.04295,-0.2304 -0.03439,-0.2019 -0.06018,-0.40527 -0.07522,-0.60955 -0.0026,-0.0466 -0.0057,-0.0932 -0.0079,-0.13981 -0.0034,-0.0734 -0.0052,-0.14696 -0.0079,-0.22044 -7.94e-4,-0.0247 -0.0016,-0.0495 -0.0029,-0.0742 -7.94e-4,-0.0158 -0.01013,-0.0333 -0.0028,-0.0473 0.01106,-0.0211 0.03521,-0.032 0.05281,-0.048 -0.0019,0.0151 -7.94e-4,0.005 -0.0021,0.0328 -5.29e-4,0.0147 -0.0013,0.0294 -0.0019,0.0442 -0.003,0.0727 -0.0056,0.1454 -0.0096,0.21805 -0.0049,0.0827 -0.0057,0.10488 -0.01262,0.18818 -0.0094,0.11275 -0.02225,0.22519 -0.03427,0.33768 -0.004,0.0379 -0.0069,0.0628 -0.01003,0.0994 -5.29e-4,0.008 0.0037,0.0173 -0.0016,0.0226 -0.015,0.015 -0.03477,0.025 -0.05429,0.0334 -0.01304,0.006 0.05217,-0.0739 0.0099,-0.0414 0.02911,-0.1741 0.04915,-0.34955 0.0687,-0.52494 0.02262,-0.21263 0.04495,-0.42537 0.05791,-0.63885 0.0021,-0.0478 -0.0072,-0.0421 0.0564,-0.0695 0.0042,-0.002 -0.0016,0.009 -0.0024,0.0134 -0.0019,0.0117 -0.0034,0.0234 -0.005,0.0351 -0.0053,0.0399 -0.01217,0.0983 -0.01675,0.13614 -0.03039,0.24749 -0.0626,0.49481 -0.102767,0.74092 -0.0067,0.0408 -0.02453,0.148 -0.03129,0.1936 -0.0032,0.0215 -0.0062,0.043 -0.0087,0.0645 -0.0016,0.0131 0.0043,0.0288 -0.0035,0.0393 -0.06912,0.092 -0.05894,0.055 -0.05359,0.0311 0.0091,-0.0757 0.01683,-0.1515 0.0269,-0.22706 0.0155,-0.1327 0.02699,-0.26596 0.03197,-0.3995 0.0011,-0.0826 0.0028,-0.16537 -0.0039,-0.24777 0,0 0.05386,-0.0279 0.05386,-0.0279 z"
                 id="path5237"
                 style="fill:#cfee91;fill-opacity:1;stroke:none;stroke-width:0.27899998;stroke-miterlimit:4;stroke-dasharray:none" />
              <path
                 inkscape:connector-curvature="0"
                 d="m 45.052929,292.84729 c 0.0086,0.0214 0.01347,0.0441 0.01815,0.0666 0.0057,0.0258 0.0096,0.0519 0.01148,0.0783 0.0013,0.0236 0.0019,0.0472 0.0021,0.0708 5.29e-4,0.0138 5.29e-4,0.0275 -0.0019,0.0411 -0.0027,0.0113 -0.0059,0.0225 -0.0098,0.0335 -0.0045,0.0104 -0.0066,0.0215 -0.009,0.0325 -0.0047,0.0173 -0.01,0.0346 -0.01508,0.0518 -0.007,0.0245 -0.01339,0.0492 -0.01966,0.0739 -0.0046,0.017 -0.0058,0.0346 -0.0066,0.0521 -5.29e-4,0.0233 -2.27e-4,0.0466 -0.0016,0.0699 -0.0011,0.0199 -0.0039,0.0396 -0.0055,0.0595 -0.0021,0.0237 -1.72e-4,0.0473 0.0016,0.071 0.0035,0.0354 0.01508,0.0692 0.02458,0.10325 0.0084,0.0313 0.01669,0.0626 0.02365,0.0942 0.0075,0.0358 0.01892,0.0704 0.03265,0.10423 0.01035,0.0255 0.02146,0.0508 0.02883,0.0774 0.0079,0.0311 0.01143,0.063 0.01601,0.0947 0.0066,0.046 0.01471,0.0917 0.02045,0.13773 0.0045,0.0414 0.0066,0.0831 0.006,0.12477 -0.0016,0.0172 0.0016,0.0422 -0.0074,0.0577 -0.01953,0.008 -0.03779,0.0205 -0.05858,0.0243 -0.0045,8.2e-4 -0.0042,-0.008 -0.0055,-0.0126 -0.0021,-0.007 -0.0036,-0.0142 -0.0048,-0.0215 -0.007,-0.0441 -0.0069,-0.0894 -0.0084,-0.13389 -0.0021,-0.13772 0.0085,-0.27527 0.02008,-0.41239 0.0084,-0.0952 0.01855,-0.19029 0.02699,-0.28552 0.0019,-0.0307 0.0056,-0.0615 0.0057,-0.0923 0.01828,-0.009 0.03526,-0.021 0.05483,-0.0262 0.0038,-10e-4 -5.29e-4,0.008 -0.0011,0.0118 -7.93e-4,0.007 -0.0016,0.0146 -0.0024,0.0219 -0.0057,0.0465 -0.01273,0.0928 -0.01931,0.13922 -0.01979,0.15423 -0.04292,0.308 -0.06443,0.462 -0.0077,0.0546 -0.01466,0.1093 -0.02066,0.16411 -0.0021,0.0192 -0.0031,0.039 -0.0064,0.058 -0.01871,0.007 -0.03622,0.0206 -0.05615,0.0206 -0.0069,-10e-6 -5.29e-4,-0.0137 -7.94e-4,-0.0206 -7.6e-5,-0.0105 -5e-5,-0.0211 2.65e-4,-0.0316 5.29e-4,-0.0122 0.0052,-0.092 0.0056,-0.0986 0.0013,-0.0223 0.0021,-0.0445 0.0034,-0.0668 0.0084,-0.16122 0.01487,-0.32251 0.01733,-0.48393 1.09e-4,-0.0212 5.3e-4,-0.0661 -7e-6,-0.09 -1.67e-4,-0.007 -2.65e-4,-0.0136 -0.0011,-0.0204 -1.98e-4,-0.002 -0.0033,-0.004 -0.0019,-0.005 0.06052,-0.0297 0.05576,-0.0358 0.04871,2.4e-4 -0.02,0.12062 -0.03273,0.24232 -0.04773,0.36363 -0.0122,0.0927 -0.02514,0.18534 -0.0389,0.27783 -0.005,0.0238 -0.0034,0.0259 -0.05672,0.0285 -0.0064,3.1e-4 0.0011,-0.0128 0.0021,-0.0192 0.0013,-0.0107 0.0031,-0.0213 0.0046,-0.0319 0.0069,-0.0501 0.0061,-0.0466 0.01222,-0.10136 0.0024,-0.0226 0.0049,-0.0452 0.0073,-0.0677 0.0089,-0.0817 0.01746,-0.1633 0.0231,-0.24531 0.0047,-0.0692 0.0054,-0.0932 0.0083,-0.16102 0.0013,-0.0491 0.0041,-0.0982 0.0044,-0.14731 3.7e-5,-0.006 1.6e-5,-0.0117 -2.64e-4,-0.0175 -6.6e-5,-0.001 -0.0019,-0.003 -7.94e-4,-0.003 0.0177,-0.007 0.03614,-0.0117 0.05421,-0.0175 -0.0059,0.11678 -0.0024,0.23384 -5.29e-4,0.35069 0.0011,0.14253 0.0058,0.28503 0.01548,0.42724 0.0057,0.0839 0.0076,0.0994 0.01511,0.18053 0.0063,0.0621 0.014,0.12403 0.02405,0.18563 0.0044,0.0269 0.0088,0.0537 0.01611,0.0799 7.94e-4,1.9e-4 0.0016,3.7e-4 0.0026,5.6e-4 -0.01704,0.006 -0.03316,0.0204 -0.05115,0.0183 -0.008,-9.3e-4 0.0024,-0.0159 0.0033,-0.0238 0.0013,-0.0117 0.0026,-0.0233 0.0039,-0.035 0.0035,-0.0344 0.0054,-0.0573 0.0085,-0.0922 0.0038,-0.0466 0.0079,-0.0933 0.01138,-0.13995 0.0016,-0.0205 0.0019,-0.0416 0.0053,-0.0618 0.01889,-0.008 0.03628,-0.0223 0.05671,-0.0236 0.0067,-4.3e-4 0.0021,0.0133 0.003,0.0199 0.0013,0.011 0.0021,0.0221 0.0031,0.0331 0.0055,0.057 0.01175,0.11396 0.01812,0.17089 0.01535,0.1247 0.03148,0.2493 0.04734,0.37394 0.0016,0.0123 0.0031,0.0247 0.0047,0.037 0.0011,0.009 0.0021,0.0183 0.0037,0.0274 7.94e-4,0.005 0.0016,0.0102 0.0029,0.0152 2.49e-4,9.8e-4 0.0026,0.002 0.0016,0.003 -0.06126,0.0248 -0.05424,0.0364 -0.05415,-0.004 -2.44e-4,-0.10907 -7.94e-4,-0.21814 -0.0011,-0.32721 -2.3e-5,-0.0187 -2.6e-5,-0.0374 -6.8e-5,-0.056 -1.1e-5,-0.005 -1.8e-4,-0.0734 -5.3e-4,-0.0834 -2.3e-4,-0.008 -5.29e-4,-0.0161 -0.0013,-0.024 -0.0016,-0.0148 -0.0011,-0.0142 -0.0038,-0.008 0.01611,-0.006 0.03097,-0.0204 0.0483,-0.0195 0.0075,4e-4 -0.0044,0.0144 -0.0062,0.0217 -0.0027,0.0107 -0.0052,0.0214 -0.0075,0.0322 -0.01058,0.049 -0.01969,0.0983 -0.02989,0.14741 -0.01984,0.0943 -0.03921,0.18885 -0.06568,0.28157 -0.0021,0.006 -0.004,0.0116 -0.0067,0.0171 -0.0094,0.019 -0.06102,0.0247 -0.06355,0.0245 -0.0082,-7.9e-4 -0.0021,-0.0163 -0.0027,-0.0245 -7.93e-4,-0.0131 -7.93e-4,-0.0263 -0.0011,-0.0394 -5.29e-4,-0.0183 -0.0011,-0.0365 -0.0016,-0.0548 -0.0054,-0.14572 -0.02143,-0.29077 -0.03732,-0.43564 -0.0016,-0.0149 -0.0033,-0.0298 -0.005,-0.0447 -0.0013,-0.0103 -0.0026,-0.0207 -0.004,-0.031 -7.94e-4,-0.005 -0.0013,-0.011 -0.0021,-0.0165 -1.56e-4,-10e-4 -0.0019,-0.003 -7.93e-4,-0.003 0.06503,-0.021 0.05465,-0.0329 0.06015,0.0115 0.01461,0.12356 0.02064,0.24787 0.0249,0.37214 0.0047,0.10491 -0.0019,0.20901 -0.01074,0.31342 -0.0011,0.0126 -0.0026,0.0312 -0.0044,0.0443 -5.29e-4,0.004 0.0011,0.009 -0.0021,0.0113 -0.01667,0.0126 -0.03386,0.0271 -0.05432,0.0314 -0.0064,10e-4 -0.0026,-0.0129 -0.0027,-0.0194 -4.7e-5,-0.011 0.0016,-0.0219 0.0024,-0.0328 0.01262,-0.1304 0.02876,-0.2604 0.0408,-0.39086 0.0019,-0.0201 0.0036,-0.0403 0.0053,-0.0604 0.0021,-0.0266 0.0036,-0.0532 0.0062,-0.0797 5.29e-4,-0.005 -0.0019,-0.0128 0.0024,-0.0162 0.05768,-0.0464 0.05098,-0.0463 0.06057,-0.0108 0.0011,0.0101 0.0024,0.0202 0.0032,0.0303 0.0021,0.0311 0.0021,0.0616 0.0019,0.0927 -2.65e-4,0.0659 -0.0024,0.13188 -0.0041,0.1978 -0.0031,0.1 -0.0087,0.19986 -0.01201,0.29984 -0.0021,0.0455 -0.0016,0.0909 0.0011,0.13636 0.0016,0.0217 0.0016,0.0436 0.0019,0.0654 7.93e-4,0.0159 -2.65e-4,0.0317 -0.0051,0.0469 -0.0097,0.0313 -0.0097,0.0268 -0.06249,0.043 -0.0026,7.9e-4 -0.0016,-0.005 -0.0021,-0.008 -0.0052,-0.0419 0.0011,-0.0839 0.0076,-0.12532 0.0013,-0.007 0.0024,-0.0137 0.0038,-0.0205 2.64e-4,-0.002 0.0067,-0.0328 0.0097,-0.0343 0.05994,-0.0307 0.05199,-0.0445 0.06038,-0.0131 0.0083,0.0524 0.0027,0.1055 -0.0021,0.15797 -0.0061,0.0537 -0.0098,0.10755 -0.01381,0.16141 -0.0016,0.0206 -0.0029,0.0412 -0.0035,0.0619 -7.94e-4,0.0102 -0.0021,0.0204 -0.0037,0.0305 -0.0047,0.0163 -0.01381,0.0309 -0.0209,0.0463 -0.01254,0.0271 -0.02408,0.0547 -0.03514,0.0825 -0.006,0.0139 -0.0085,0.0288 -0.01146,0.0435 -0.0028,0.0149 -0.0031,0.0301 -0.0034,0.0452 -1.78e-4,0.0128 -7.4e-5,0.0256 -2.2e-5,0.0385 -0.0011,0.0134 0.0039,0.0253 0.0094,0.0372 0.0067,0.0129 0.01312,0.0258 0.01998,0.0386 0.0047,0.0109 0.0091,0.022 0.01413,0.0328 0.0049,0.0107 0.0089,0.0218 0.01177,0.0332 0.0024,0.0104 0.0024,0.0212 0.0027,0.0319 8.8e-5,0.0113 1.3e-5,0.0226 1.9e-5,0.0339 -0.0028,0.0399 -0.0016,0.0232 -0.05938,0.0478 -0.0028,-0.0311 0.0052,-0.0624 0.01204,-0.0925 0.0074,-0.0308 0.01754,-0.0608 0.02849,-0.0905 0.0062,-0.0164 0.0127,-0.0328 0.01767,-0.0496 2.65e-4,-10e-4 -1.21e-4,-0.004 0.0011,-0.004 0.01789,-0.008 0.03565,-0.0167 0.05485,-0.0196 0.0038,-5.9e-4 -7.94e-4,0.008 -0.0013,0.0116 -0.0024,0.0154 -0.0062,0.0305 -0.01013,0.0456 -0.01074,0.039 -0.0052,0.0396 -0.06477,0.0561 -0.0035,9.7e-4 -0.0021,-0.007 -0.0026,-0.0108 -7.94e-4,-0.005 -7.94e-4,-0.0108 -0.0013,-0.0161 -0.0019,-0.0727 0.0084,-0.14493 0.01709,-0.2169 0.0042,-0.0352 0.0091,-0.0703 0.01405,-0.10538 0.0013,-0.009 0.0057,-0.0281 0.0035,-0.0386 0.0176,-0.008 0.03416,-0.0182 0.0528,-0.0226 0.004,-9.6e-4 -0.0035,0.007 -0.0049,0.0114 -0.0024,0.006 -0.0043,0.0131 -0.0061,0.0197 -0.0088,0.0323 -0.01453,0.0653 -0.02045,0.0981 -0.01193,0.071 -0.01736,0.14277 -0.0164,0.21468 5.29e-4,0.007 7.93e-4,0.0147 0.0013,0.022 2.64e-4,0.004 0.0013,0.0176 0.0039,0.0232 2.64e-4,7.1e-4 0.0011,-0.003 2.64e-4,-0.002 -0.01757,0.007 -0.03323,0.0199 -0.05189,0.0233 -0.0046,8.5e-4 7.93e-4,-0.009 0.0011,-0.0141 0.0011,-0.0384 2.17e-4,-0.0767 0.0013,-0.11509 7.94e-4,-0.0318 0.0019,-0.0441 0.0037,-0.0757 0.0019,-0.0286 0.0051,-0.0571 0.0075,-0.0856 5.3e-4,-0.005 7.94e-4,-0.0102 0.0011,-0.0154 9.8e-5,-0.002 -0.0024,-0.006 -1.27e-4,-0.007 0.01646,-0.008 0.0345,-0.0114 0.05175,-0.0171 -0.01741,0.0685 -0.02249,0.13937 -0.02714,0.20965 -0.0034,0.0603 -0.0044,0.12069 -0.0038,0.18107 7.4e-5,0.004 1.4e-4,0.009 2.25e-4,0.0133 9e-5,0.005 2.04e-4,0.012 5.29e-4,0.0171 6.1e-5,10e-4 0.0013,0.003 2.65e-4,0.003 -0.05706,0.0291 -0.05557,0.0438 -0.05433,0.0171 0.0021,-0.0392 0.0064,-0.0783 0.01146,-0.11726 0.0047,-0.0317 0.0097,-0.0634 0.01429,-0.0951 0,0 0.05073,-0.0249 0.05073,-0.0249 v 0 c -0.0047,0.0316 -0.0098,0.0631 -0.01378,0.0947 -0.0043,0.0382 -0.0081,0.0765 -0.0085,0.11503 0.0011,0.0277 0.0024,0.01 -0.05452,0.0384 -0.0011,5.5e-4 1.77e-4,-0.002 2.3e-4,-0.004 5.3e-4,-0.0104 5.3e-4,-0.0209 7.94e-4,-0.0313 0.0019,-0.0612 0.0042,-0.12233 0.0078,-0.18342 0.0044,-0.0696 0.0092,-0.13932 0.02125,-0.20808 0.019,-0.012 0.03687,-0.026 0.05695,-0.0361 0.0024,-10e-4 -7.93e-4,0.005 -0.0011,0.008 -7.94e-4,0.005 -0.0016,0.0106 -0.0021,0.016 -0.0039,0.0287 -0.0074,0.0575 -0.0098,0.0865 -0.0021,0.0312 -0.0032,0.0439 -0.0037,0.0753 -5.3e-4,0.0378 0.0016,0.0756 0.0024,0.11344 7.94e-4,0.0351 0.0044,0.0167 -0.05368,0.0519 -0.0011,7.1e-4 -0.0021,-0.002 -0.0024,-0.003 -7.94e-4,-0.003 -7.94e-4,-0.006 -0.0011,-0.009 -5.29e-4,-0.005 -7.93e-4,-0.0109 -0.0011,-0.0164 -2.65e-4,-0.008 -5.29e-4,-0.0151 -7.94e-4,-0.0227 7.94e-4,-0.0724 0.0065,-0.14474 0.01762,-0.21635 0.0053,-0.0325 0.01035,-0.0651 0.01741,-0.0973 0.0013,-0.007 0.0031,-0.013 0.0047,-0.0194 0.0011,-0.004 -1.75e-4,-0.01 0.0032,-0.0119 0.01778,-0.0124 0.03834,-0.0203 0.05751,-0.0304 -2.15e-4,0.0139 -0.0044,0.0283 -0.0068,0.0418 -0.0063,0.0353 -0.01185,0.0707 -0.01627,0.10628 -0.0087,0.0708 -0.01834,0.14211 -0.01336,0.21356 5.29e-4,0.005 0.0011,0.01 0.0019,0.0149 2.64e-4,0.002 0.0033,0.005 0.0016,0.007 -0.01595,0.012 -0.03426,0.0206 -0.05139,0.0309 0.0011,-0.002 0.0024,-0.003 0.0031,-0.005 0.0019,-0.004 0.0064,-0.0203 0.0074,-0.0237 0.0041,-0.0147 0.0079,-0.0293 0.0099,-0.0444 5.29e-4,-0.004 -0.0019,-0.008 0.0011,-0.0107 0.01683,-0.0134 0.03622,-0.0232 0.05493,-0.0337 0.0013,-6.8e-4 -0.0013,0.003 -0.0019,0.004 -0.0049,0.0172 -0.01156,0.0337 -0.01805,0.0504 -0.01177,0.0295 -0.02262,0.0595 -0.03033,0.0904 -0.0064,0.0287 -0.01408,0.0586 -0.01095,0.0881 -0.01807,0.01 -0.0363,0.0196 -0.05422,0.0299 -5.29e-4,3.4e-4 0.0016,4.7e-4 0.0021,-8e-5 0.0033,-0.004 0.0016,-0.0147 0.0034,-0.02 6.3e-5,-0.0113 1.08e-4,-0.0225 4.2e-5,-0.0338 -9.5e-5,-0.0102 -1.64e-4,-0.0206 -0.0021,-0.0307 -0.0024,-0.0111 -0.0063,-0.0218 -0.01103,-0.0322 -0.0051,-0.0107 -0.0095,-0.0216 -0.01405,-0.0325 -0.0067,-0.013 -0.01291,-0.0262 -0.01968,-0.0391 -0.006,-0.0124 -0.01201,-0.0251 -0.01109,-0.0393 1.6e-5,-0.0129 6.9e-5,-0.0258 2.64e-4,-0.0387 2.65e-4,-0.0153 5.29e-4,-0.0308 0.0026,-0.046 0.0029,-0.0153 0.0057,-0.0306 0.01188,-0.045 0.01132,-0.0278 0.02347,-0.0552 0.0353,-0.0828 0.0021,-0.005 0.007,-0.0168 0.0096,-0.0222 0.0035,-0.007 0.0084,-0.0142 0.01045,-0.0223 0.0024,-0.01 0.0026,-0.0199 0.0045,-0.0298 7.94e-4,-0.0212 0.0032,-0.0422 0.0054,-0.0632 0.0056,-0.0541 0.0094,-0.10829 0.01558,-0.1623 0.0046,-0.0513 0.01011,-0.10345 -2.35e-4,-0.15443 -0.0083,-0.0277 -0.0056,-0.008 0.04846,-0.0398 0.0019,-0.001 -0.0035,0.002 -0.0045,0.004 -0.0021,0.004 -0.0029,0.008 -0.0042,0.0121 -0.0045,0.0152 -0.0054,0.0214 -0.0087,0.0374 -0.007,0.0401 -0.01331,0.0811 -0.0062,0.12175 0.0061,0.0244 0.0026,0.004 -0.05148,0.0347 -7.94e-4,4.8e-4 0.0019,-4.5e-4 0.0026,-0.001 0.0032,-0.004 0.0024,-0.01 0.0049,-0.0138 0.0056,-0.0155 0.0074,-0.0289 0.0067,-0.0455 -1.11e-4,-0.0218 -7.94e-4,-0.0437 -0.0013,-0.0655 -7.93e-4,-0.0461 -0.0013,-0.0923 0.0019,-0.13834 0.0057,-0.10082 0.01418,-0.20149 0.01741,-0.30245 0.0016,-0.0654 0.0028,-0.13073 0.0013,-0.19617 -5.29e-4,-0.0288 -0.0013,-0.0615 -0.0048,-0.0904 -0.0011,-0.01 -0.0033,-0.0191 -0.0049,-0.0286 -0.0074,-0.0272 -0.01088,-0.0249 0.04464,-0.0432 0.0056,-0.002 -0.0039,0.0111 -0.005,0.0169 -0.0021,0.011 -0.0034,0.0221 -0.0049,0.0332 -0.0046,0.0356 -0.0085,0.0742 -0.01222,0.10963 -0.01326,0.12907 -0.02916,0.25807 -0.03524,0.38773 -3.2e-5,0.0103 6.3e-5,0.0206 -9.5e-5,0.0309 -5.29e-4,0.0273 -0.0042,0.0216 -0.04989,0.0413 -0.0036,0.002 0.0026,-0.007 0.0035,-0.0113 0.0026,-0.0118 0.0052,-0.0343 0.0067,-0.0452 0.01281,-0.1048 0.0214,-0.21016 0.01717,-0.31586 -0.004,-0.12302 -0.01037,-0.24634 -0.03176,-0.36777 -0.0099,-0.0466 -0.01209,-0.0194 0.04664,-0.064 7.93e-4,-6.4e-4 -0.0026,3.9e-4 -0.0028,0.001 -7.94e-4,0.006 -2.64e-4,0.0117 -1.32e-4,0.0175 2.64e-4,0.0107 0.0013,0.0214 0.0019,0.0321 0.0011,0.0153 0.0021,0.0305 0.0031,0.0457 0.01093,0.14534 0.0265,0.29023 0.038,0.43552 5.29e-4,0.006 0.0057,0.0778 0.0074,0.0913 7.93e-4,0.007 0.0084,0.0158 0.0038,0.0214 -0.01281,0.0156 -0.03331,0.0227 -0.04971,0.0344 -0.0074,0.005 0.05239,-0.0304 0.01633,-0.0216 0.0033,-0.01 0.007,-0.0197 0.01003,-0.0297 0.02553,-0.083 0.04183,-0.1686 0.06008,-0.25336 0.0092,-0.0485 0.01738,-0.097 0.02598,-0.14558 0.0019,-0.0105 0.0038,-0.0211 0.0058,-0.0316 0.0013,-0.007 -7.94e-4,-0.0163 0.0042,-0.0216 0.01619,-0.0167 0.03765,-0.0274 0.05647,-0.0412 0.0013,10e-4 0.0036,0.002 0.0041,0.004 0.0011,0.004 5.3e-4,0.009 7.94e-4,0.0129 7.4e-5,0.008 -1.24e-4,0.0168 -2.64e-4,0.0252 -0.0013,0.0471 -0.0035,0.0942 -0.0035,0.14141 -5.29e-4,0.10795 5.3e-4,0.21601 0.0072,0.32379 0.0036,0.0418 0.0081,0.0217 -0.05163,0.0595 -0.0011,7.4e-4 3.2e-5,-0.003 -4.7e-5,-0.004 -2.65e-4,-0.005 -7.94e-4,-0.0108 -0.0011,-0.0163 -7.93e-4,-0.009 -0.0013,-0.0188 -0.0021,-0.0282 -0.0011,-0.0126 -0.0021,-0.0251 -0.0033,-0.0377 -0.01228,-0.12546 -0.02676,-0.25069 -0.04412,-0.37556 -0.0077,-0.056 -0.01505,-0.11213 -0.02349,-0.16805 -0.0016,-0.0106 -0.0032,-0.0212 -0.0051,-0.0317 -0.0011,-0.006 -0.0077,-0.0126 -0.0038,-0.0168 0.01378,-0.0147 0.03373,-0.022 0.05059,-0.033 -0.0013,0.003 -0.0031,0.006 -0.0039,0.009 -0.0024,0.01 -0.0064,0.0488 -0.007,0.0544 -0.005,0.0467 -0.0091,0.0936 -0.01249,0.14044 -0.0029,0.0418 -0.006,0.0835 -0.0084,0.12528 -5.3e-4,0.008 0.0041,0.0175 -0.0011,0.0234 -0.04944,0.0554 -0.04569,0.0591 -0.05763,0.0354 -0.014,-0.0901 -0.02164,-0.18106 -0.02982,-0.27179 -0.01482,-0.20261 -0.02484,-0.40552 -0.02947,-0.60863 -0.0043,-0.11475 -0.0096,-0.22947 -0.01236,-0.34426 0.01815,-0.0124 0.03576,-0.0257 0.05441,-0.0373 0.0013,-7.9e-4 -0.0011,0.003 -0.0013,0.004 -0.0011,0.006 -0.0016,0.0125 -0.0021,0.0188 -0.005,0.0501 -0.008,0.10038 -0.01114,0.15063 -0.0048,0.0827 -0.0094,0.16547 -0.0158,0.24809 -0.0062,0.0795 -0.0071,0.0803 -0.01402,0.15772 -0.0021,0.0223 -0.0038,0.0446 -0.0056,0.0669 -0.0016,0.0187 -0.0029,0.0374 -0.0044,0.056 -0.0021,0.0247 -0.0048,0.0494 -0.0065,0.0741 -2.65e-4,0.006 0.0036,0.0132 -5.3e-4,0.0171 -0.0155,0.0141 -0.03521,0.0228 -0.05385,0.0323 -0.0024,0.001 0.0026,-0.005 0.0038,-0.007 0.0074,-0.031 0.01297,-0.0624 0.0185,-0.0938 0.01098,-0.0625 0.02125,-0.12507 0.02932,-0.18799 0.01487,-0.11962 0.02654,-0.23956 0.03901,-0.35945 0.0035,-0.0392 -0.0031,-0.0241 0.05776,-0.0545 0.0021,-0.001 -6.1e-5,0.005 -1.85e-4,0.007 -2.65e-4,0.007 -0.0011,0.0145 -0.0013,0.0218 -7.94e-4,0.0127 -0.0016,0.0255 -0.0021,0.0382 -7.94e-4,0.0181 -0.0016,0.0361 -0.0024,0.0541 -0.0065,0.16126 -0.01307,0.32253 -0.01707,0.48386 -5.29e-4,0.022 -0.0011,0.0439 -0.0016,0.0659 -2.65e-4,0.0158 -0.0024,0.0771 -0.0021,0.0965 8.7e-5,0.0102 5.29e-4,0.0203 0.0013,0.0304 5.29e-4,0.006 0.0063,0.014 0.0021,0.0185 -0.01439,0.0151 -0.03491,0.0228 -0.05237,0.0341 0.0013,-0.002 0.003,-0.004 0.0037,-0.006 0.0027,-0.009 0.0085,-0.0489 0.0092,-0.0532 0.0085,-0.0555 0.01648,-0.111 0.02524,-0.16643 0.01593,-0.10567 0.03251,-0.21128 0.04562,-0.31735 0.0031,-0.0253 0.0058,-0.0507 0.0087,-0.0761 0.0026,-0.0224 0.0051,-0.0448 0.0076,-0.0673 0.0052,-0.0453 0.01069,-0.0906 0.01373,-0.13614 5.29e-4,-0.007 7.93e-4,-0.0139 7.93e-4,-0.0209 9e-5,-0.003 -0.0029,-0.008 -1.08e-4,-0.0104 0.01664,-0.0123 0.03631,-0.0199 0.05446,-0.0298 -0.0038,0.0315 -0.0057,0.0633 -0.01013,0.0948 -0.01088,0.0959 -0.02217,0.19177 -0.03177,0.28782 -0.01257,0.13655 -0.02471,0.27377 -0.01897,0.41102 0.0028,0.0434 0.0042,0.0875 0.01323,0.13013 0.0013,0.007 0.0032,0.0133 0.0055,0.0197 0.0013,0.003 0.0077,0.007 0.0051,0.01 -0.01463,0.0131 -0.03344,0.0206 -0.05016,0.0308 0.0013,-2e-4 0.003,2.9e-4 0.004,-6.1e-4 0.0024,-0.002 0.0041,-0.0118 0.0044,-0.0137 0.0021,-0.0129 0.0029,-0.0261 0.0034,-0.0392 0.0013,-0.0416 -5.8e-5,-0.0831 -0.0046,-0.12452 -0.0055,-0.046 -0.01371,-0.0916 -0.0209,-0.1373 -0.0049,-0.0313 -0.0091,-0.0628 -0.01693,-0.0935 -0.007,-0.0265 -0.01786,-0.0517 -0.02762,-0.0773 -0.01355,-0.0341 -0.02519,-0.0691 -0.03345,-0.1049 -0.0069,-0.0316 -0.01492,-0.0628 -0.02318,-0.0941 -0.0093,-0.0344 -0.02111,-0.0684 -0.02556,-0.10395 -0.0021,-0.0237 -0.0049,-0.0476 -0.0028,-0.0714 0.0013,-0.0199 0.0042,-0.0397 0.0057,-0.0596 0.0016,-0.0232 0.0013,-0.0464 0.0013,-0.0697 2.64e-4,-0.0179 0.0011,-0.0359 0.006,-0.0533 0.0064,-0.0248 0.01371,-0.0494 0.02006,-0.0743 0.0047,-0.017 0.009,-0.0341 0.01405,-0.0509 0.0024,-0.0112 0.0042,-0.0227 0.0087,-0.0334 0.0043,-0.0105 0.007,-0.0217 0.01021,-0.0326 0.0032,-0.0132 0.0031,-0.0267 0.003,-0.0402 1.58e-4,-0.0236 8.2e-5,-0.0472 -0.0013,-0.0707 -0.0019,-0.0261 -0.0056,-0.052 -0.01111,-0.0776 -0.0048,-0.0221 -0.0091,-0.0448 -0.01918,-0.0652 0,0 0.05361,-0.0295 0.05361,-0.0295 z"
                 id="path5239"
                 style="fill:#cfee91;fill-opacity:1;stroke:none;stroke-width:0.27899998;stroke-miterlimit:4;stroke-dasharray:none" />
              <path
                 inkscape:connector-curvature="0"
                 d="m 45.108029,297.01982 c -0.0045,-0.0114 -0.0077,-0.0233 -0.0098,-0.0354 -0.0016,-0.009 -0.0019,-0.0188 -0.0019,-0.0282 -6e-6,-0.009 1e-5,-0.0187 1.8e-5,-0.028 -7.94e-4,-0.009 -0.0024,-0.0174 -0.0032,-0.0262 -7.94e-4,-0.01 -7.94e-4,-0.0197 -7.94e-4,-0.0296 1.64e-4,-0.0101 -0.0019,-0.02 -0.0029,-0.0299 -0.0011,-0.009 -0.0011,-0.0175 -0.0013,-0.0263 -0.0011,-0.007 -0.0026,-0.0144 -0.0033,-0.0217 -7.94e-4,-0.0105 -7.94e-4,-0.0211 -7.94e-4,-0.0317 -9.3e-5,-0.0103 -2.9e-5,-0.0207 -3.7e-5,-0.031 -5e-6,-0.009 -7.7e-5,-0.0185 -1.3e-5,-0.0277 -6.1e-5,-0.0102 0.0016,-0.0204 0.0033,-0.0305 0.0026,-0.0101 0.0034,-0.0205 0.0049,-0.0308 0.0019,-0.01 0.0031,-0.0192 0.0038,-0.029 5.3e-4,-0.008 5.3e-4,-0.0167 5.3e-4,-0.0251 9e-5,-0.009 3.1e-5,-0.0188 5e-6,-0.0282 -1.6e-5,-0.009 -6.9e-5,-0.0174 0,-0.0261 1.32e-4,-0.0101 -0.0019,-0.0202 -0.0028,-0.0302 -0.0011,-0.009 -7.94e-4,-0.0187 -0.0016,-0.028 -0.0013,-0.009 -0.0026,-0.0184 -0.0033,-0.0277 -2.65e-4,-0.01 -0.0024,-0.019 -0.0034,-0.0285 -0.0011,-0.0103 -7.94e-4,-0.0206 -0.0021,-0.0308 -0.0016,-0.01 -0.0043,-0.0189 -0.0057,-0.0286 -0.0013,-0.01 -0.0016,-0.0194 -0.0016,-0.0291 -4.8e-5,-0.0106 -0.0019,-0.0212 -0.0028,-0.0318 -0.0011,-0.0125 -0.0011,-0.025 -0.0013,-0.0376 -8.7e-5,-0.0106 -8.7e-5,-0.0213 -1.16e-4,-0.0319 -1.4e-5,-0.009 -6.6e-5,-0.0177 2e-6,-0.0265 3.5e-5,-0.009 0,-0.0186 -1.6e-5,-0.0279 -1.5e-5,-0.008 -1.8e-5,-0.0168 -2.1e-5,-0.0253 -3.1e-5,-0.009 2.4e-5,-0.0173 5.1e-5,-0.026 1.5e-5,-0.0102 2e-6,-0.0203 5e-5,-0.0305 -3.2e-5,-0.0106 3e-6,-0.0212 -1.9e-5,-0.0317 8e-6,-0.0102 -2e-6,-0.0203 -3.4e-5,-0.0305 -2.9e-5,-0.009 -4e-5,-0.0174 -4.5e-5,-0.026 4.2e-5,-0.008 2.65e-4,-0.0163 -0.0011,-0.0244 -0.0011,-0.005 -0.0016,-0.0104 -0.0024,-0.0156 -9.2e-5,-5.5e-4 -7.93e-4,-0.002 -2.64e-4,-0.002 0.0011,0.002 0.0019,0.003 0.0029,0.005 0,0 0.04829,-0.0388 0.04829,-0.0388 v 0 c 0.0011,0.002 0.0024,0.003 0.0033,0.005 0.0016,0.003 2.65e-4,0.0137 0.0024,0.0174 0.0016,0.008 0.0016,0.0167 0.0013,0.0252 -5e-6,0.009 -1.6e-5,0.0174 -4.5e-5,0.0261 -3.2e-5,0.0102 -4.2e-5,0.0203 -3.4e-5,0.0305 -2.1e-5,0.0106 1.3e-5,0.0212 -1.9e-5,0.0317 4.8e-5,0.0102 3.5e-5,0.0203 5.1e-5,0.0304 2.6e-5,0.009 8.2e-5,0.0173 5e-5,0.0259 -3e-6,0.008 -6e-6,0.0169 -2.1e-5,0.0253 -1.6e-5,0.009 -5.1e-5,0.0186 -1.9e-5,0.028 6.6e-5,0.009 3e-6,0.0177 -2.9e-5,0.0266 -5e-5,0.0106 -9.3e-5,0.0213 -7.1e-5,0.0319 2.6e-5,0.0124 1.45e-4,0.0248 0.0011,0.0372 7.94e-4,0.0107 0.0029,0.0213 0.0032,0.0321 8.2e-5,0.01 1.85e-4,0.019 0.0013,0.0284 0.0013,0.01 0.0041,0.019 0.0057,0.0286 0.0016,0.0103 0.0019,0.0206 0.0024,0.0311 0.0011,0.01 0.0029,0.019 0.0036,0.0286 5.29e-4,0.009 0.0016,0.0184 0.0031,0.0274 0.0013,0.009 7.93e-4,0.0187 0.0016,0.0281 0.0011,0.0103 0.0029,0.0204 0.0032,0.0307 6.9e-5,0.009 1.9e-5,0.0174 1.9e-5,0.026 -1.1e-5,0.009 -3.7e-5,0.0188 6e-5,0.0281 -2e-6,0.009 8e-6,0.017 -2.64e-4,0.0255 -5.29e-4,0.01 -0.0016,0.0198 -0.0037,0.0295 -0.0019,0.0103 -0.0019,0.0208 -0.0047,0.031 -0.0021,0.01 -0.0033,0.0196 -0.0037,0.0294 6.1e-5,0.009 -1.6e-5,0.0185 -3.7e-5,0.0277 -2.9e-5,0.0103 -3e-6,0.0207 -5e-5,0.031 3.1e-5,0.0104 5e-5,0.0207 7.93e-4,0.0311 7.94e-4,0.007 0.0021,0.0148 0.0035,0.0221 6.9e-5,0.009 1.78e-4,0.0172 0.0011,0.0258 0.0011,0.0102 0.003,0.0203 0.0031,0.0305 2.6e-5,0.01 9.8e-5,0.0194 7.93e-4,0.0291 7.94e-4,0.009 0.0021,0.0178 0.0035,0.0267 -3.9e-5,0.009 -1.19e-4,0.0186 -9.2e-5,0.028 9.5e-5,0.009 6.6e-5,0.0183 0.0013,0.0274 0.0016,0.0117 0.0043,0.0232 0.0093,0.0339 0,0 -0.0535,0.0301 -0.0535,0.0301 z"
                 id="path5241"
                 style="fill:#cfee91;fill-opacity:1;stroke:none;stroke-width:0.27899998;stroke-miterlimit:4;stroke-dasharray:none" />
              <path
                 inkscape:connector-curvature="0"
                 d="m 45.187523,295.32188 c -0.008,0.0452 -0.01342,0.0908 -0.02085,0.13618 -0.01384,0.0827 -0.03012,0.16498 -0.03678,0.24864 -0.0019,0.0229 -0.0026,0.0459 -0.0039,0.0689 -0.0053,0.13735 0.01013,0.27404 0.02807,0.40994 0.0087,0.0659 0.01841,0.13164 0.02669,0.19759 -0.02024,-0.003 0.0071,0.012 0.0028,0.0141 -0.01738,0.008 -0.03434,0.02 -0.05353,0.022 -0.0056,5.8e-4 0.0019,-0.0111 0.0028,-0.0167 0.0035,-0.0233 0.0066,-0.0468 0.0099,-0.0701 0.0026,-0.0186 0.0053,-0.0373 0.0078,-0.056 0.01077,-0.0817 0.01889,-0.16343 0.02429,-0.24563 0.0055,-0.0841 0.0064,-0.12274 0.0098,-0.20764 0.0032,-0.10812 0.0026,-0.21639 -0.003,-0.32443 -0.0039,-0.0767 -0.0079,-0.11363 -0.01453,-0.18864 0,0 0.04127,-0.0214 0.04127,-0.0214 v 0 c 0.0049,0.0701 0.0088,0.11917 0.01193,0.1902 0.0048,0.10814 0.006,0.21643 0.0032,0.32464 -0.0031,0.0999 -0.0063,0.19977 -0.01307,0.29952 -0.0041,0.0614 -0.0071,0.0907 -0.01297,0.15021 -0.0019,0.0183 -0.0037,0.0366 -0.0055,0.0548 -0.0031,0.0321 -0.0039,0.039 -0.0061,0.0682 -2.65e-4,0.005 0.003,0.0126 -0.0011,0.0161 -0.01619,0.0143 -0.03626,0.0236 -0.05535,0.0338 -0.0046,0.002 0.0109,-0.0312 -0.0011,-0.0157 -0.0049,-0.0671 -0.01312,-0.13382 -0.02056,-0.20065 -0.01553,-0.13668 -0.02976,-0.27385 -0.02667,-0.41164 0.0026,-0.0601 0.0021,-0.0723 0.0082,-0.13066 0.0066,-0.0619 0.01807,-0.12308 0.02681,-0.18464 0.0065,-0.0446 0.01185,-0.0893 0.0164,-0.13419 0,0 0.05489,-0.0267 0.05489,-0.0267 z"
                 id="path5243"
                 style="fill:#cfee91;fill-opacity:1;stroke:none;stroke-width:0.27899998;stroke-miterlimit:4;stroke-dasharray:none" />
              <path
                 inkscape:connector-curvature="0"
                 d="m 43.830639,293.22946 c -0.09938,0.0753 -0.191072,0.15987 -0.28054,0.2465 -0.166688,0.17555 -0.157036,0.16373 -0.475285,0.31647 -0.02761,0.0132 -0.06021,0.0114 -0.09049,0.016 -0.0209,0.003 -0.142981,0.0177 -0.166632,0.0205 -0.07339,0.0134 -0.149651,0.008 -0.222705,0.0235 -0.02323,0.005 -0.04576,0.0127 -0.06869,0.0189 -0.09209,0.0406 -0.18769,0.0732 -0.282813,0.10596 -0.175884,0.0477 -0.353218,0.0898 -0.529296,0.1372 -0.113123,0.0331 -0.228592,0.0543 -0.346101,0.0617 -0.09114,0.003 -0.182581,0.006 -0.273527,-0.002 -0.09608,-0.005 -0.190518,-0.0235 -0.286096,-0.0334 -0.112581,-0.0177 -0.226156,-0.028 -0.339559,-0.0387 -0.201882,-0.025 -0.405201,-0.0338 -0.608385,-0.0397 -0.145839,-0.004 -0.291722,-0.003 -0.437592,-0.003 -0.129143,-0.008 -0.258112,-0.0182 -0.38644,-0.035 -0.06926,-0.0144 -0.142631,-0.0105 -0.209902,-0.0341 -0.03127,-0.011 -0.04076,-0.0181 -0.06887,-0.0343 -0.04451,-0.0327 -0.08163,-0.0849 -0.07829,-0.14286 7.94e-4,-0.0139 0.0051,-0.0275 0.0077,-0.0412 0.0081,-0.0175 0.01458,-0.0359 0.02421,-0.0526 0.02871,-0.0498 0.07024,-0.10017 0.106381,-0.14374 0.0632,-0.0762 0.129839,-0.1491 0.197945,-0.22087 0.176453,-0.18927 0.289894,-0.2314 0.539126,-0.37268 0.05541,-0.0163 0.115318,-0.0196 0.172323,-0.0111 0.01042,0.004 0.02117,0.008 0.03126,0.013 0.01987,0.01 0.06781,0.0407 0.08364,0.0494 0.08387,0.0464 0.172324,0.0829 0.260446,0.12019 0.21309,0.088 0.440015,0.12998 0.667877,0.15633 0.10165,0.0113 0.203875,0.0128 0.306017,0.0121 0.12832,-0.0127 0.252124,-0.0515 0.377497,-0.0798 0.181721,-0.036 0.361529,-0.0803 0.54162,-0.12343 0.160153,-0.0373 0.320525,-0.0708 0.482987,-0.0963 0.23858,-0.0455 0.477242,-0.0907 0.715621,-0.13728 0.179038,-0.0336 0.359444,-0.0594 0.539583,-0.0864 0.05544,-0.002 0.112737,-0.0203 0.16854,-0.0158 0.0232,0.002 0.0422,0.0112 0.06343,0.0195 0.07336,0.0287 0.130352,0.0861 0.192997,0.13212 0.08039,0.0593 0.152612,0.12784 0.223706,0.19772 0.06424,0.0661 0.127349,0.13349 0.189872,0.2013 0.07011,0.073 0.133165,0.15209 0.196237,0.2311 0.05496,0.0709 0.118393,0.13521 0.171124,0.2078 0.03361,0.044 0.05612,0.0933 0.06261,0.14822 -0.0013,0.0277 -0.0094,0.0605 -0.03582,0.0755 -0.31273,0.17831 -0.198626,0.16028 -0.340128,0.17925 -0.09526,-0.0101 -0.07191,-0.14194 -0.06363,-0.20568 0.03229,-0.15775 0.09261,-0.30711 0.161806,-0.45181 0.03943,-0.0764 0.0822,-0.15212 0.139155,-0.21692 0.04775,-0.0452 0.100422,-0.0843 0.148322,-0.12948 0.05628,-0.0491 0.106837,-0.10411 0.160375,-0.15605 0.08031,-0.0811 0.174892,-0.14407 0.270301,-0.20566 0.09099,-0.0539 0.173582,-0.12011 0.260718,-0.17966 0.05655,-0.0346 0.105084,-0.0789 0.153405,-0.12376 0.05614,-0.0504 0.116589,-0.0957 0.175948,-0.14215 0.06858,-0.0568 0.132278,-0.11933 0.196744,-0.18071 0.06177,-0.063 0.126,-0.12215 0.196557,-0.17505 0.0085,-0.006 0.01659,-0.0126 0.02558,-0.0178 0.104632,-0.0606 0.207481,-0.12459 0.315177,-0.17956 0.0068,-0.003 0.02558,0.0207 0.02659,0.044 2.65e-4,0.009 -0.02477,0.0363 -0.02739,0.0395 -0.04852,0.0508 -0.09848,0.10027 -0.1481,0.15002 -0.03119,0.0312 -0.06309,0.0616 -0.09474,0.0923 -0.02582,0.0281 -0.05248,0.0551 -0.08343,0.0776 -0.188732,0.12 -0.635926,0.37155 -0.04719,0.0324 0,0 -0.323776,0.12647 -0.323776,0.12647 v 0 c 1.041437,-0.60831 -0.192519,0.11325 0.04867,-0.0293 0.01871,-0.0169 0.04163,-0.0281 0.05945,-0.0462 0.0044,-0.004 0.0074,-0.0102 0.01175,-0.0147 0.0043,-0.004 0.0095,-0.008 0.01421,-0.012 0.02861,-0.0349 0.06476,-0.062 0.09526,-0.0952 0.05213,-0.0465 0.09975,-0.0982 0.14832,-0.14825 0.0061,-0.005 0.01238,-0.0109 0.01844,-0.0164 0.0037,-0.003 0.0061,-0.0119 0.01093,-0.0105 0.0083,0.003 0.01254,0.0121 0.01767,0.0191 0.0016,0.002 -5.3e-4,0.009 0.0019,0.008 0.08467,-0.0467 0.391631,-0.22695 0.250552,-0.14609 -0.0711,0.0523 -0.139829,0.1057 -0.199302,0.17158 -0.06442,0.0616 -0.128662,0.12368 -0.194956,0.18318 -0.05771,0.0474 -0.118306,0.091 -0.175387,0.13923 -0.0489,0.0455 -0.09518,0.0938 -0.152477,0.12917 -0.08939,0.0593 -0.173275,0.12633 -0.265088,0.18206 -0.0936,0.0605 -0.189556,0.11832 -0.268415,0.19831 -0.05509,0.0499 -0.102436,0.10765 -0.15957,0.15524 -0.04667,0.0458 -0.09421,0.0902 -0.148593,0.12681 -0.0141,0.0155 -0.02968,0.0296 -0.04311,0.0456 -0.0418,0.0499 -0.07161,0.11039 -0.10574,0.16532 -0.07126,0.14092 -0.134478,0.28604 -0.165913,0.44171 -0.0035,0.0239 -0.02477,0.12792 0.0069,0.14732 0.0061,0.004 0.02408,-10e-4 0.02835,-0.002 0.123052,-0.0412 0.0062,-0.004 -0.260308,0.15577 -0.01675,0.01 0.09194,-0.0426 0.05139,-0.0413 0.0026,-0.049 -0.02397,-0.0929 -0.05105,-0.13192 -0.05075,-0.073 -0.112657,-0.1376 -0.16686,-0.20799 -0.06315,-0.078 -0.126711,-0.15571 -0.19613,-0.22834 -0.06258,-0.0671 -0.125296,-0.13404 -0.188907,-0.2001 -0.0698,-0.069 -0.141475,-0.13592 -0.221321,-0.19334 -0.06036,-0.0443 -0.116893,-0.0978 -0.189278,-0.12164 -0.0719,-0.0187 -0.146227,-4e-4 -0.218919,0.006 -0.176787,0.0239 -0.353843,0.047 -0.529098,0.0806 -0.240024,0.0464 -0.479901,0.0935 -0.720018,0.13939 -0.162595,0.0279 -0.323144,0.0642 -0.48413,0.10009 -0.179879,0.0421 -0.359732,0.0842 -0.54048,0.12239 -0.128667,0.0308 -0.256754,0.0729 -0.389705,0.0792 -0.100711,-8.7e-4 -0.201329,-0.007 -0.301132,-0.021 -0.228021,-0.0328 -0.454679,-0.08 -0.669256,-0.16606 -0.08211,-0.0333 -0.119483,-0.0474 -0.198099,-0.0832 -0.05174,-0.0236 -0.102756,-0.0573 -0.156557,-0.0763 -0.0087,-0.003 -0.01802,-0.004 -0.02703,-0.006 -0.05475,-0.002 -0.110389,0.001 -0.160506,0.0257 0.543959,-0.31833 0.279786,-0.17569 0.19345,-0.1088 -0.05431,0.0421 -0.104913,0.0891 -0.153533,0.13755 -0.119994,0.1218 -0.241802,0.24828 -0.327268,0.3973 -0.02307,0.0678 -0.0097,0.10231 0.04879,0.14433 0.08284,0.043 0.175324,0.0477 0.266462,0.0612 0.128447,0.0157 0.257559,0.025 0.386885,0.0296 0.143592,10e-4 0.287181,0.004 0.430701,0.009 0.204812,0.008 0.409591,0.0175 0.613559,0.0383 0.114861,0.009 0.229679,0.0196 0.343712,0.0366 0.09504,0.0108 0.18927,0.0285 0.285051,0.0322 0.09038,0.004 0.180994,0.002 0.271317,-0.003 0.113866,-0.009 0.22583,-0.0313 0.335947,-0.062 0.176916,-0.0464 0.355351,-0.0877 0.530207,-0.14129 0.09693,-0.035 0.192791,-0.0729 0.289811,-0.10752 0.09453,-0.0229 0.191582,-0.0227 0.28788,-0.0341 0.04025,-0.005 0.124576,-0.0141 0.163322,-0.0218 0.02931,-0.006 0.108807,-0.0421 0.087,-0.0217 -0.06028,0.0565 -0.134048,0.098 -0.207901,0.13502 -0.02323,0.0117 0.03509,-0.0383 0.05292,-0.0572 0.01812,-0.0192 0.03659,-0.0381 0.05489,-0.0571 0.08656,-0.0858 0.175352,-0.1694 0.270023,-0.24633 0,0 0.322466,-0.12901 0.322466,-0.12901 z"
                 id="path5245"
                 style="fill:#cfee91;fill-opacity:1;stroke:none;stroke-width:0.27899998;stroke-miterlimit:4;stroke-dasharray:none" />
            </g>
          </g>
        </g>
      </g>
    </g>
  </g>
</svg>
